<svg width="18" height="20" viewBox="0 0 18 20" fill="none" xmlns="http://www.w3.org/2000/svg">
<path d="M17.2976 19.3171H0.702439C0.316098 19.3171 0 19.001 0 18.6147C0 13.6273 3.1961 10.8791 9 10.8791C14.8039 10.8791 18 13.6273 18 18.6147C18 19.001 17.6839 19.3171 17.2976 19.3171ZM1.44 17.9034H16.5688C16.2878 14.1717 13.7502 12.2839 9 12.2839C4.24976 12.2839 1.7122 14.1805 1.44 17.9034Z" fill="white"/>
<path d="M8.99982 9.84293C6.41836 9.84293 4.31982 7.56878 4.31982 4.7678C4.31982 2.05463 6.33056 0 8.99982 0C11.6691 0 13.6798 2.05463 13.6798 4.7678C13.6798 7.56878 11.5813 9.84293 8.99982 9.84293ZM8.99982 1.41366C7.10324 1.41366 5.73348 2.82732 5.73348 4.77659C5.73348 6.7961 7.19982 8.44683 8.99982 8.44683C10.7998 8.44683 12.2662 6.80488 12.2662 4.77659C12.2662 2.85366 10.8613 1.41366 8.99982 1.41366Z" fill="white"/>
</svg>
