<svg width="331" height="331" viewBox="0 0 331 331" fill="none" xmlns="http://www.w3.org/2000/svg">
<mask id="mask0_12_43" style="mask-type:alpha" maskUnits="userSpaceOnUse" x="0" y="0" width="331" height="331">
<path d="M331 165.5C331 256.903 256.903 331 165.5 331C74.0969 331 0 256.903 0 165.5C0 74.0969 74.0969 0 165.5 0C256.903 0 331 74.0969 331 165.5ZM54.0864 165.5C54.0864 227.032 103.968 276.914 165.5 276.914C227.032 276.914 276.914 227.032 276.914 165.5C276.914 103.968 227.032 54.0864 165.5 54.0864C103.968 54.0864 54.0864 103.968 54.0864 165.5Z" fill="#C4C4C4"/>
</mask>
<g mask="url(#mask0_12_43)">
<path d="M145.116 1.26012C151.998 0.405983 158.926 -0.0147755 165.861 0.000379841L165.735 57.9252C161.227 57.9154 156.723 58.1889 152.25 58.7441L145.116 1.26012Z" fill="#ECBE49"/>
<path d="M106.527 10.8634C119.499 5.91638 133.042 2.62128 146.837 1.05569L153.369 58.6112C144.402 59.6288 135.6 61.7706 127.168 64.9862L106.527 10.8634Z" fill="#A594D6"/>
<path d="M55.0464 42.2512C70.0596 28.7966 87.4047 18.1983 106.227 10.9781L126.973 65.0608C114.738 69.7539 103.464 76.6428 93.7052 85.3883L55.0464 42.2512Z" fill="#ADF465"/>
<path d="M16.0172 94.4711C25.8709 73.7337 39.9316 55.2734 57.3053 40.2638L95.1735 84.0965C83.8806 93.8527 74.7411 105.852 68.3363 119.331L16.0172 94.4711Z" fill="#51DCDC"/>
<path d="M0.00286149 164.491C0.151414 140.129 5.67639 116.101 16.1834 94.1217L68.4441 119.104C61.6146 133.391 58.0234 149.009 57.9268 164.844L0.00286149 164.491Z" fill="#F7CA2B"/>
<path d="M16.5246 239.943C4.76388 216.526 -1.30615 190.667 -1.18917 164.48L56.7742 164.895C56.6982 181.916 60.6437 198.725 68.2881 213.946L16.5246 239.943Z" fill="#D761DA"/>
<path d="M87.5507 312.998C56.6022 296.759 31.5891 271.14 16.0963 239.811L68.0193 214.134C78.0896 234.497 94.3481 251.15 114.465 261.706L87.5507 312.998Z" fill="#E03434"/>
<path d="M260.475 301.036C235.479 318.552 206.126 328.814 175.662 330.688C145.198 332.562 114.809 325.975 87.8542 311.655L115.03 260.501C132.551 269.809 152.304 274.09 172.105 272.872C191.907 271.654 210.986 264.984 227.234 253.598L260.475 301.036Z" fill="#14AD48"/>
<path d="M327.728 132.046C334.47 164.529 331.294 198.289 318.613 228.946C305.931 259.602 284.328 285.739 256.608 303.966L224.784 255.566C242.802 243.719 256.844 226.73 265.087 206.803C273.33 186.877 275.394 164.933 271.011 143.818L327.728 132.046Z" fill="#EB4824"/>
<path d="M166.191 0.00147577C204.525 0.161561 241.614 13.6238 271.126 38.0893C300.637 62.5548 320.74 96.5062 328.003 134.146L271.127 145.12C266.406 120.654 253.339 98.5856 234.157 82.6831C214.974 66.7805 190.866 58.03 165.949 57.926L166.191 0.00147577Z" fill="#4753C0"/>
</g>
<path d="M259.299 74H253.709V73.2207L256.662 69.9395C257.1 69.4434 257.4 69.041 257.564 68.7324C257.732 68.4199 257.816 68.0977 257.816 67.7656C257.816 67.3203 257.682 66.9551 257.412 66.6699C257.143 66.3848 256.783 66.2422 256.334 66.2422C255.795 66.2422 255.375 66.3965 255.074 66.7051C254.777 67.0098 254.629 67.4355 254.629 67.9824H253.545C253.545 67.1973 253.797 66.5625 254.301 66.0781C254.809 65.5938 255.486 65.3516 256.334 65.3516C257.127 65.3516 257.754 65.5605 258.215 65.9785C258.676 66.3926 258.906 66.9453 258.906 67.6367C258.906 68.4766 258.371 69.4766 257.301 70.6367L255.016 73.1152H259.299V74ZM264.01 74H262.92V66.7754L260.734 67.5781V66.5938L263.84 65.4277H264.01V74ZM267.32 73.4316C267.32 73.2441 267.375 73.0879 267.484 72.9629C267.598 72.8379 267.766 72.7754 267.988 72.7754C268.211 72.7754 268.379 72.8379 268.492 72.9629C268.609 73.0879 268.668 73.2441 268.668 73.4316C268.668 73.6113 268.609 73.7617 268.492 73.8828C268.379 74.0039 268.211 74.0645 267.988 74.0645C267.766 74.0645 267.598 74.0039 267.484 73.8828C267.375 73.7617 267.32 73.6113 267.32 73.4316ZM274.504 70.25C274.277 70.5195 274.006 70.7363 273.689 70.9004C273.377 71.0645 273.033 71.1465 272.658 71.1465C272.166 71.1465 271.736 71.0254 271.369 70.7832C271.006 70.541 270.725 70.2012 270.525 69.7637C270.326 69.3223 270.227 68.8359 270.227 68.3047C270.227 67.7344 270.334 67.2207 270.549 66.7637C270.768 66.3066 271.076 65.957 271.475 65.7148C271.873 65.4727 272.338 65.3516 272.869 65.3516C273.713 65.3516 274.377 65.668 274.861 66.3008C275.35 66.9297 275.594 67.7891 275.594 68.8789V69.1953C275.594 70.8555 275.266 72.0684 274.609 72.834C273.953 73.5957 272.963 73.9863 271.639 74.0059H271.428V73.0918H271.656C272.551 73.0762 273.238 72.8438 273.719 72.3945C274.199 71.9414 274.461 71.2266 274.504 70.25ZM272.834 70.25C273.197 70.25 273.531 70.1387 273.836 69.916C274.145 69.6934 274.369 69.418 274.51 69.0898V68.6562C274.51 67.9453 274.355 67.3672 274.047 66.9219C273.738 66.4766 273.348 66.2539 272.875 66.2539C272.398 66.2539 272.016 66.4375 271.727 66.8047C271.438 67.168 271.293 67.6484 271.293 68.2461C271.293 68.8281 271.432 69.3086 271.709 69.6875C271.99 70.0625 272.365 70.25 272.834 70.25ZM279.971 67.1094C279.971 66.5977 280.133 66.1758 280.457 65.8438C280.785 65.5117 281.205 65.3457 281.717 65.3457C282.236 65.3457 282.656 65.5137 282.977 65.8496C283.301 66.1816 283.463 66.6133 283.463 67.1445V67.5605C283.463 68.0762 283.299 68.498 282.971 68.8262C282.646 69.1504 282.232 69.3125 281.729 69.3125C281.221 69.3125 280.801 69.1504 280.469 68.8262C280.137 68.498 279.971 68.0625 279.971 67.5195V67.1094ZM280.779 67.5605C280.779 67.8652 280.865 68.1172 281.037 68.3164C281.209 68.5117 281.439 68.6094 281.729 68.6094C282.006 68.6094 282.229 68.5137 282.396 68.3223C282.568 68.1309 282.654 67.8691 282.654 67.5371V67.1094C282.654 66.8047 282.57 66.5527 282.402 66.3535C282.234 66.1543 282.006 66.0547 281.717 66.0547C281.428 66.0547 281.199 66.1543 281.031 66.3535C280.863 66.5527 280.779 66.8125 280.779 67.1328V67.5605ZM284.125 71.9082C284.125 71.3965 284.287 70.9766 284.611 70.6484C284.939 70.3164 285.359 70.1504 285.871 70.1504C286.383 70.1504 286.803 70.3145 287.131 70.6426C287.459 70.9707 287.623 71.4062 287.623 71.9492V72.3652C287.623 72.877 287.459 73.2988 287.131 73.6309C286.807 73.959 286.391 74.123 285.883 74.123C285.375 74.123 284.955 73.9609 284.623 73.6367C284.291 73.3086 284.125 72.873 284.125 72.3301V71.9082ZM284.934 72.3652C284.934 72.6738 285.02 72.9277 285.191 73.127C285.363 73.3223 285.594 73.4199 285.883 73.4199C286.164 73.4199 286.389 73.3242 286.557 73.1328C286.725 72.9375 286.809 72.6738 286.809 72.3418V71.9082C286.809 71.5996 286.723 71.3477 286.551 71.1523C286.383 70.957 286.156 70.8594 285.871 70.8594C285.594 70.8594 285.367 70.957 285.191 71.1523C285.02 71.3438 284.934 71.6035 284.934 71.9316V72.3652ZM281.975 73.3555L281.359 72.9688L285.525 66.3008L286.141 66.6875L281.975 73.3555Z" fill="white"/>
<path d="M281.271 225H280.182V217.775L277.996 218.578V217.594L281.102 216.428H281.271V225ZM288.602 221.25C288.375 221.52 288.104 221.736 287.787 221.9C287.475 222.064 287.131 222.146 286.756 222.146C286.264 222.146 285.834 222.025 285.467 221.783C285.104 221.541 284.822 221.201 284.623 220.764C284.424 220.322 284.324 219.836 284.324 219.305C284.324 218.734 284.432 218.221 284.646 217.764C284.865 217.307 285.174 216.957 285.572 216.715C285.971 216.473 286.436 216.352 286.967 216.352C287.811 216.352 288.475 216.668 288.959 217.301C289.447 217.93 289.691 218.789 289.691 219.879V220.195C289.691 221.855 289.363 223.068 288.707 223.834C288.051 224.596 287.061 224.986 285.736 225.006H285.525V224.092H285.754C286.648 224.076 287.336 223.844 287.816 223.395C288.297 222.941 288.559 222.227 288.602 221.25ZM286.932 221.25C287.295 221.25 287.629 221.139 287.934 220.916C288.242 220.693 288.467 220.418 288.607 220.09V219.656C288.607 218.945 288.453 218.367 288.145 217.922C287.836 217.477 287.445 217.254 286.973 217.254C286.496 217.254 286.113 217.438 285.824 217.805C285.535 218.168 285.391 218.648 285.391 219.246C285.391 219.828 285.529 220.309 285.807 220.688C286.088 221.062 286.463 221.25 286.932 221.25ZM291.32 224.432C291.32 224.244 291.375 224.088 291.484 223.963C291.598 223.838 291.766 223.775 291.988 223.775C292.211 223.775 292.379 223.838 292.492 223.963C292.609 224.088 292.668 224.244 292.668 224.432C292.668 224.611 292.609 224.762 292.492 224.883C292.379 225.004 292.211 225.064 291.988 225.064C291.766 225.064 291.598 225.004 291.484 224.883C291.375 224.762 291.32 224.611 291.32 224.432ZM299.699 221.361C299.699 222.631 299.482 223.574 299.049 224.191C298.615 224.809 297.938 225.117 297.016 225.117C296.105 225.117 295.432 224.816 294.994 224.215C294.557 223.609 294.33 222.707 294.314 221.508V220.061C294.314 218.807 294.531 217.875 294.965 217.266C295.398 216.656 296.078 216.352 297.004 216.352C297.922 216.352 298.598 216.646 299.031 217.236C299.465 217.822 299.688 218.729 299.699 219.955V221.361ZM298.615 219.879C298.615 218.961 298.486 218.293 298.229 217.875C297.971 217.453 297.562 217.242 297.004 217.242C296.449 217.242 296.045 217.451 295.791 217.869C295.537 218.287 295.406 218.93 295.398 219.797V221.531C295.398 222.453 295.531 223.135 295.797 223.576C296.066 224.014 296.473 224.232 297.016 224.232C297.551 224.232 297.947 224.025 298.205 223.611C298.467 223.197 298.604 222.545 298.615 221.654V219.879ZM303.971 218.109C303.971 217.598 304.133 217.176 304.457 216.844C304.785 216.512 305.205 216.346 305.717 216.346C306.236 216.346 306.656 216.514 306.977 216.85C307.301 217.182 307.463 217.613 307.463 218.145V218.561C307.463 219.076 307.299 219.498 306.971 219.826C306.646 220.15 306.232 220.312 305.729 220.312C305.221 220.312 304.801 220.15 304.469 219.826C304.137 219.498 303.971 219.062 303.971 218.52V218.109ZM304.779 218.561C304.779 218.865 304.865 219.117 305.037 219.316C305.209 219.512 305.439 219.609 305.729 219.609C306.006 219.609 306.229 219.514 306.396 219.322C306.568 219.131 306.654 218.869 306.654 218.537V218.109C306.654 217.805 306.57 217.553 306.402 217.354C306.234 217.154 306.006 217.055 305.717 217.055C305.428 217.055 305.199 217.154 305.031 217.354C304.863 217.553 304.779 217.812 304.779 218.133V218.561ZM308.125 222.908C308.125 222.396 308.287 221.977 308.611 221.648C308.939 221.316 309.359 221.15 309.871 221.15C310.383 221.15 310.803 221.314 311.131 221.643C311.459 221.971 311.623 222.406 311.623 222.949V223.365C311.623 223.877 311.459 224.299 311.131 224.631C310.807 224.959 310.391 225.123 309.883 225.123C309.375 225.123 308.955 224.961 308.623 224.637C308.291 224.309 308.125 223.873 308.125 223.33V222.908ZM308.934 223.365C308.934 223.674 309.02 223.928 309.191 224.127C309.363 224.322 309.594 224.42 309.883 224.42C310.164 224.42 310.389 224.324 310.557 224.133C310.725 223.938 310.809 223.674 310.809 223.342V222.908C310.809 222.6 310.723 222.348 310.551 222.152C310.383 221.957 310.156 221.859 309.871 221.859C309.594 221.859 309.367 221.957 309.191 222.152C309.02 222.344 308.934 222.604 308.934 222.932V223.365ZM305.975 224.355L305.359 223.969L309.525 217.301L310.141 217.688L305.975 224.355Z" fill="white"/>
<path d="M158.271 305H157.182V297.775L154.996 298.578V297.594L158.102 296.428H158.271V305ZM166.955 297.078L163.422 305H162.285L165.807 297.359H161.189V296.469H166.955V297.078ZM168.32 304.432C168.32 304.244 168.375 304.088 168.484 303.963C168.598 303.838 168.766 303.775 168.988 303.775C169.211 303.775 169.379 303.838 169.492 303.963C169.609 304.088 169.668 304.244 169.668 304.432C169.668 304.611 169.609 304.762 169.492 304.883C169.379 305.004 169.211 305.064 168.988 305.064C168.766 305.064 168.598 305.004 168.484 304.883C168.375 304.762 168.32 304.611 168.32 304.432ZM176.939 305H171.35V304.221L174.303 300.939C174.74 300.443 175.041 300.041 175.205 299.732C175.373 299.42 175.457 299.098 175.457 298.766C175.457 298.32 175.322 297.955 175.053 297.67C174.783 297.385 174.424 297.242 173.975 297.242C173.436 297.242 173.016 297.396 172.715 297.705C172.418 298.01 172.27 298.436 172.27 298.982H171.186C171.186 298.197 171.438 297.562 171.941 297.078C172.449 296.594 173.127 296.352 173.975 296.352C174.768 296.352 175.395 296.561 175.855 296.979C176.316 297.393 176.547 297.945 176.547 298.637C176.547 299.477 176.012 300.477 174.941 301.637L172.656 304.115H176.939V305ZM180.971 298.109C180.971 297.598 181.133 297.176 181.457 296.844C181.785 296.512 182.205 296.346 182.717 296.346C183.236 296.346 183.656 296.514 183.977 296.85C184.301 297.182 184.463 297.613 184.463 298.145V298.561C184.463 299.076 184.299 299.498 183.971 299.826C183.646 300.15 183.232 300.312 182.729 300.312C182.221 300.312 181.801 300.15 181.469 299.826C181.137 299.498 180.971 299.062 180.971 298.52V298.109ZM181.779 298.561C181.779 298.865 181.865 299.117 182.037 299.316C182.209 299.512 182.439 299.609 182.729 299.609C183.006 299.609 183.229 299.514 183.396 299.322C183.568 299.131 183.654 298.869 183.654 298.537V298.109C183.654 297.805 183.57 297.553 183.402 297.354C183.234 297.154 183.006 297.055 182.717 297.055C182.428 297.055 182.199 297.154 182.031 297.354C181.863 297.553 181.779 297.812 181.779 298.133V298.561ZM185.125 302.908C185.125 302.396 185.287 301.977 185.611 301.648C185.939 301.316 186.359 301.15 186.871 301.15C187.383 301.15 187.803 301.314 188.131 301.643C188.459 301.971 188.623 302.406 188.623 302.949V303.365C188.623 303.877 188.459 304.299 188.131 304.631C187.807 304.959 187.391 305.123 186.883 305.123C186.375 305.123 185.955 304.961 185.623 304.637C185.291 304.309 185.125 303.873 185.125 303.33V302.908ZM185.934 303.365C185.934 303.674 186.02 303.928 186.191 304.127C186.363 304.322 186.594 304.42 186.883 304.42C187.164 304.42 187.389 304.324 187.557 304.133C187.725 303.938 187.809 303.674 187.809 303.342V302.908C187.809 302.6 187.723 302.348 187.551 302.152C187.383 301.957 187.156 301.859 186.871 301.859C186.594 301.859 186.367 301.957 186.191 302.152C186.02 302.344 185.934 302.604 185.934 302.932V303.365ZM182.975 304.355L182.359 303.969L186.525 297.301L187.141 297.688L182.975 304.355Z" fill="white"/>
<path d="M53.2715 265H52.1816V257.775L49.9961 258.578V257.594L53.1016 256.428H53.2715V265ZM61.7969 261.361C61.7969 262.631 61.5801 263.574 61.1465 264.191C60.7129 264.809 60.0352 265.117 59.1133 265.117C58.2031 265.117 57.5293 264.816 57.0918 264.215C56.6543 263.609 56.4277 262.707 56.4121 261.508V260.061C56.4121 258.807 56.6289 257.875 57.0625 257.266C57.4961 256.656 58.1758 256.352 59.1016 256.352C60.0195 256.352 60.6953 256.646 61.1289 257.236C61.5625 257.822 61.7852 258.729 61.7969 259.955V261.361ZM60.7129 259.879C60.7129 258.961 60.584 258.293 60.3262 257.875C60.0684 257.453 59.6602 257.242 59.1016 257.242C58.5469 257.242 58.1426 257.451 57.8887 257.869C57.6348 258.287 57.5039 258.93 57.4961 259.797V261.531C57.4961 262.453 57.6289 263.135 57.8945 263.576C58.1641 264.014 58.5703 264.232 59.1133 264.232C59.6484 264.232 60.0449 264.025 60.3027 263.611C60.5645 263.197 60.7012 262.545 60.7129 261.654V259.879ZM63.3203 264.432C63.3203 264.244 63.375 264.088 63.4844 263.963C63.5977 263.838 63.7656 263.775 63.9883 263.775C64.2109 263.775 64.3789 263.838 64.4922 263.963C64.6094 264.088 64.668 264.244 64.668 264.432C64.668 264.611 64.6094 264.762 64.4922 264.883C64.3789 265.004 64.2109 265.064 63.9883 265.064C63.7656 265.064 63.5977 265.004 63.4844 264.883C63.375 264.762 63.3203 264.611 63.3203 264.432ZM71.6992 261.361C71.6992 262.631 71.4824 263.574 71.0488 264.191C70.6152 264.809 69.9375 265.117 69.0156 265.117C68.1055 265.117 67.4316 264.816 66.9941 264.215C66.5566 263.609 66.3301 262.707 66.3145 261.508V260.061C66.3145 258.807 66.5312 257.875 66.9648 257.266C67.3984 256.656 68.0781 256.352 69.0039 256.352C69.9219 256.352 70.5977 256.646 71.0312 257.236C71.4648 257.822 71.6875 258.729 71.6992 259.955V261.361ZM70.6152 259.879C70.6152 258.961 70.4863 258.293 70.2285 257.875C69.9707 257.453 69.5625 257.242 69.0039 257.242C68.4492 257.242 68.0449 257.451 67.791 257.869C67.5371 258.287 67.4062 258.93 67.3984 259.797V261.531C67.3984 262.453 67.5312 263.135 67.7969 263.576C68.0664 264.014 68.4727 264.232 69.0156 264.232C69.5508 264.232 69.9473 264.025 70.2051 263.611C70.4668 263.197 70.6035 262.545 70.6152 261.654V259.879ZM75.9707 258.109C75.9707 257.598 76.1328 257.176 76.457 256.844C76.7852 256.512 77.2051 256.346 77.7168 256.346C78.2363 256.346 78.6562 256.514 78.9766 256.85C79.3008 257.182 79.4629 257.613 79.4629 258.145V258.561C79.4629 259.076 79.2988 259.498 78.9707 259.826C78.6465 260.15 78.2324 260.312 77.7285 260.312C77.2207 260.312 76.8008 260.15 76.4688 259.826C76.1367 259.498 75.9707 259.062 75.9707 258.52V258.109ZM76.7793 258.561C76.7793 258.865 76.8652 259.117 77.0371 259.316C77.209 259.512 77.4395 259.609 77.7285 259.609C78.0059 259.609 78.2285 259.514 78.3965 259.322C78.5684 259.131 78.6543 258.869 78.6543 258.537V258.109C78.6543 257.805 78.5703 257.553 78.4023 257.354C78.2344 257.154 78.0059 257.055 77.7168 257.055C77.4277 257.055 77.1992 257.154 77.0312 257.354C76.8633 257.553 76.7793 257.812 76.7793 258.133V258.561ZM80.125 262.908C80.125 262.396 80.2871 261.977 80.6113 261.648C80.9395 261.316 81.3594 261.15 81.8711 261.15C82.3828 261.15 82.8027 261.314 83.1309 261.643C83.459 261.971 83.623 262.406 83.623 262.949V263.365C83.623 263.877 83.459 264.299 83.1309 264.631C82.8066 264.959 82.3906 265.123 81.8828 265.123C81.375 265.123 80.9551 264.961 80.623 264.637C80.291 264.309 80.125 263.873 80.125 263.33V262.908ZM80.9336 263.365C80.9336 263.674 81.0195 263.928 81.1914 264.127C81.3633 264.322 81.5938 264.42 81.8828 264.42C82.1641 264.42 82.3887 264.324 82.5566 264.133C82.7246 263.938 82.8086 263.674 82.8086 263.342V262.908C82.8086 262.6 82.7227 262.348 82.5508 262.152C82.3828 261.957 82.1562 261.859 81.8711 261.859C81.5938 261.859 81.3672 261.957 81.1914 262.152C81.0195 262.344 80.9336 262.604 80.9336 262.932V263.365ZM77.9746 264.355L77.3594 263.969L81.5254 257.301L82.1406 257.688L77.9746 264.355Z" fill="white"/>
<path d="M25.2168 194.078L21.6836 202H20.5469L24.0684 194.359H19.4512V193.469H25.2168V194.078ZM26.582 201.432C26.582 201.244 26.6367 201.088 26.7461 200.963C26.8594 200.838 27.0273 200.775 27.25 200.775C27.4727 200.775 27.6406 200.838 27.7539 200.963C27.8711 201.088 27.9297 201.244 27.9297 201.432C27.9297 201.611 27.8711 201.762 27.7539 201.883C27.6406 202.004 27.4727 202.064 27.25 202.064C27.0273 202.064 26.8594 202.004 26.7461 201.883C26.6367 201.762 26.582 201.611 26.582 201.432ZM30.1094 197.723L30.543 193.469H34.9141V194.471H31.4629L31.2051 196.797C31.623 196.551 32.0977 196.428 32.6289 196.428C33.4062 196.428 34.0234 196.686 34.4805 197.201C34.9375 197.713 35.166 198.406 35.166 199.281C35.166 200.16 34.9277 200.854 34.4512 201.361C33.9785 201.865 33.3164 202.117 32.4648 202.117C31.7109 202.117 31.0957 201.908 30.6191 201.49C30.1426 201.072 29.8711 200.494 29.8047 199.756H30.8301C30.8965 200.244 31.0703 200.613 31.3516 200.863C31.6328 201.109 32.0039 201.232 32.4648 201.232C32.9688 201.232 33.3633 201.061 33.6484 200.717C33.9375 200.373 34.082 199.898 34.082 199.293C34.082 198.723 33.9258 198.266 33.6133 197.922C33.3047 197.574 32.8926 197.4 32.377 197.4C31.9043 197.4 31.5332 197.504 31.2637 197.711L30.9766 197.945L30.1094 197.723ZM39.2324 195.109C39.2324 194.598 39.3945 194.176 39.7188 193.844C40.0469 193.512 40.4668 193.346 40.9785 193.346C41.498 193.346 41.918 193.514 42.2383 193.85C42.5625 194.182 42.7246 194.613 42.7246 195.145V195.561C42.7246 196.076 42.5605 196.498 42.2324 196.826C41.9082 197.15 41.4941 197.312 40.9902 197.312C40.4824 197.312 40.0625 197.15 39.7305 196.826C39.3984 196.498 39.2324 196.062 39.2324 195.52V195.109ZM40.041 195.561C40.041 195.865 40.127 196.117 40.2988 196.316C40.4707 196.512 40.7012 196.609 40.9902 196.609C41.2676 196.609 41.4902 196.514 41.6582 196.322C41.8301 196.131 41.916 195.869 41.916 195.537V195.109C41.916 194.805 41.832 194.553 41.6641 194.354C41.4961 194.154 41.2676 194.055 40.9785 194.055C40.6895 194.055 40.4609 194.154 40.293 194.354C40.125 194.553 40.041 194.812 40.041 195.133V195.561ZM43.3867 199.908C43.3867 199.396 43.5488 198.977 43.873 198.648C44.2012 198.316 44.6211 198.15 45.1328 198.15C45.6445 198.15 46.0645 198.314 46.3926 198.643C46.7207 198.971 46.8848 199.406 46.8848 199.949V200.365C46.8848 200.877 46.7207 201.299 46.3926 201.631C46.0684 201.959 45.6523 202.123 45.1445 202.123C44.6367 202.123 44.2168 201.961 43.8848 201.637C43.5527 201.309 43.3867 200.873 43.3867 200.33V199.908ZM44.1953 200.365C44.1953 200.674 44.2812 200.928 44.4531 201.127C44.625 201.322 44.8555 201.42 45.1445 201.42C45.4258 201.42 45.6504 201.324 45.8184 201.133C45.9863 200.938 46.0703 200.674 46.0703 200.342V199.908C46.0703 199.6 45.9844 199.348 45.8125 199.152C45.6445 198.957 45.418 198.859 45.1328 198.859C44.8555 198.859 44.6289 198.957 44.4531 199.152C44.2812 199.344 44.1953 199.604 44.1953 199.932V200.365ZM41.2363 201.355L40.6211 200.969L44.7871 194.301L45.4023 194.688L41.2363 201.355Z" fill="white"/>
<path d="M25.2168 129.078L21.6836 137H20.5469L24.0684 129.359H19.4512V128.469H25.2168V129.078ZM26.582 136.432C26.582 136.244 26.6367 136.088 26.7461 135.963C26.8594 135.838 27.0273 135.775 27.25 135.775C27.4727 135.775 27.6406 135.838 27.7539 135.963C27.8711 136.088 27.9297 136.244 27.9297 136.432C27.9297 136.611 27.8711 136.762 27.7539 136.883C27.6406 137.004 27.4727 137.064 27.25 137.064C27.0273 137.064 26.8594 137.004 26.7461 136.883C26.6367 136.762 26.582 136.611 26.582 136.432ZM34.9609 133.361C34.9609 134.631 34.7441 135.574 34.3105 136.191C33.877 136.809 33.1992 137.117 32.2773 137.117C31.3672 137.117 30.6934 136.816 30.2559 136.215C29.8184 135.609 29.5918 134.707 29.5762 133.508V132.061C29.5762 130.807 29.793 129.875 30.2266 129.266C30.6602 128.656 31.3398 128.352 32.2656 128.352C33.1836 128.352 33.8594 128.646 34.293 129.236C34.7266 129.822 34.9492 130.729 34.9609 131.955V133.361ZM33.877 131.879C33.877 130.961 33.748 130.293 33.4902 129.875C33.2324 129.453 32.8242 129.242 32.2656 129.242C31.7109 129.242 31.3066 129.451 31.0527 129.869C30.7988 130.287 30.668 130.93 30.6602 131.797V133.531C30.6602 134.453 30.793 135.135 31.0586 135.576C31.3281 136.014 31.7344 136.232 32.2773 136.232C32.8125 136.232 33.209 136.025 33.4668 135.611C33.7285 135.197 33.8652 134.545 33.877 133.654V131.879ZM39.2324 130.109C39.2324 129.598 39.3945 129.176 39.7188 128.844C40.0469 128.512 40.4668 128.346 40.9785 128.346C41.498 128.346 41.918 128.514 42.2383 128.85C42.5625 129.182 42.7246 129.613 42.7246 130.145V130.561C42.7246 131.076 42.5605 131.498 42.2324 131.826C41.9082 132.15 41.4941 132.312 40.9902 132.312C40.4824 132.312 40.0625 132.15 39.7305 131.826C39.3984 131.498 39.2324 131.062 39.2324 130.52V130.109ZM40.041 130.561C40.041 130.865 40.127 131.117 40.2988 131.316C40.4707 131.512 40.7012 131.609 40.9902 131.609C41.2676 131.609 41.4902 131.514 41.6582 131.322C41.8301 131.131 41.916 130.869 41.916 130.537V130.109C41.916 129.805 41.832 129.553 41.6641 129.354C41.4961 129.154 41.2676 129.055 40.9785 129.055C40.6895 129.055 40.4609 129.154 40.293 129.354C40.125 129.553 40.041 129.812 40.041 130.133V130.561ZM43.3867 134.908C43.3867 134.396 43.5488 133.977 43.873 133.648C44.2012 133.316 44.6211 133.15 45.1328 133.15C45.6445 133.15 46.0645 133.314 46.3926 133.643C46.7207 133.971 46.8848 134.406 46.8848 134.949V135.365C46.8848 135.877 46.7207 136.299 46.3926 136.631C46.0684 136.959 45.6523 137.123 45.1445 137.123C44.6367 137.123 44.2168 136.961 43.8848 136.637C43.5527 136.309 43.3867 135.873 43.3867 135.33V134.908ZM44.1953 135.365C44.1953 135.674 44.2812 135.928 44.4531 136.127C44.625 136.322 44.8555 136.42 45.1445 136.42C45.4258 136.42 45.6504 136.324 45.8184 136.133C45.9863 135.938 46.0703 135.674 46.0703 135.342V134.908C46.0703 134.6 45.9844 134.348 45.8125 134.152C45.6445 133.957 45.418 133.859 45.1328 133.859C44.8555 133.859 44.6289 133.957 44.4531 134.152C44.2812 134.344 44.1953 134.604 44.1953 134.932V135.365ZM41.2363 136.355L40.6211 135.969L44.7871 129.301L45.4023 129.688L41.2363 136.355Z" fill="white"/>
<path d="M43.9629 76.4629V77.3828H43.7637C42.9199 77.3984 42.248 77.6484 41.748 78.1328C41.248 78.6172 40.959 79.2988 40.8809 80.1777C41.3301 79.6621 41.9434 79.4043 42.7207 79.4043C43.4629 79.4043 44.0547 79.666 44.4961 80.1895C44.9414 80.7129 45.1641 81.3887 45.1641 82.2168C45.1641 83.0957 44.9238 83.7988 44.4434 84.3262C43.9668 84.8535 43.3262 85.1172 42.5215 85.1172C41.7051 85.1172 41.043 84.8047 40.5352 84.1797C40.0273 83.5508 39.7734 82.7422 39.7734 81.7539V81.3379C39.7734 79.7676 40.1074 78.5684 40.7754 77.7402C41.4473 76.9082 42.4453 76.4824 43.7695 76.4629H43.9629ZM42.5391 80.3066C42.168 80.3066 41.8262 80.418 41.5137 80.6406C41.2012 80.8633 40.9844 81.1426 40.8633 81.4785V81.877C40.8633 82.5801 41.0215 83.1465 41.3379 83.5762C41.6543 84.0059 42.0488 84.2207 42.5215 84.2207C43.0098 84.2207 43.3926 84.041 43.6699 83.6816C43.9512 83.3223 44.0918 82.8516 44.0918 82.2695C44.0918 81.6836 43.9492 81.2109 43.6641 80.8516C43.3828 80.4883 43.0078 80.3066 42.5391 80.3066ZM46.582 84.4316C46.582 84.2441 46.6367 84.0879 46.7461 83.9629C46.8594 83.8379 47.0273 83.7754 47.25 83.7754C47.4727 83.7754 47.6406 83.8379 47.7539 83.9629C47.8711 84.0879 47.9297 84.2441 47.9297 84.4316C47.9297 84.6113 47.8711 84.7617 47.7539 84.8828C47.6406 85.0039 47.4727 85.0645 47.25 85.0645C47.0273 85.0645 46.8594 85.0039 46.7461 84.8828C46.6367 84.7617 46.582 84.6113 46.582 84.4316ZM53.8652 76.4629V77.3828H53.666C52.8223 77.3984 52.1504 77.6484 51.6504 78.1328C51.1504 78.6172 50.8613 79.2988 50.7832 80.1777C51.2324 79.6621 51.8457 79.4043 52.623 79.4043C53.3652 79.4043 53.957 79.666 54.3984 80.1895C54.8438 80.7129 55.0664 81.3887 55.0664 82.2168C55.0664 83.0957 54.8262 83.7988 54.3457 84.3262C53.8691 84.8535 53.2285 85.1172 52.4238 85.1172C51.6074 85.1172 50.9453 84.8047 50.4375 84.1797C49.9297 83.5508 49.6758 82.7422 49.6758 81.7539V81.3379C49.6758 79.7676 50.0098 78.5684 50.6777 77.7402C51.3496 76.9082 52.3477 76.4824 53.6719 76.4629H53.8652ZM52.4414 80.3066C52.0703 80.3066 51.7285 80.418 51.416 80.6406C51.1035 80.8633 50.8867 81.1426 50.7656 81.4785V81.877C50.7656 82.5801 50.9238 83.1465 51.2402 83.5762C51.5566 84.0059 51.9512 84.2207 52.4238 84.2207C52.9121 84.2207 53.2949 84.041 53.5723 83.6816C53.8535 83.3223 53.9941 82.8516 53.9941 82.2695C53.9941 81.6836 53.8516 81.2109 53.5664 80.8516C53.2852 80.4883 52.9102 80.3066 52.4414 80.3066ZM59.2324 78.1094C59.2324 77.5977 59.3945 77.1758 59.7188 76.8438C60.0469 76.5117 60.4668 76.3457 60.9785 76.3457C61.498 76.3457 61.918 76.5137 62.2383 76.8496C62.5625 77.1816 62.7246 77.6133 62.7246 78.1445V78.5605C62.7246 79.0762 62.5605 79.498 62.2324 79.8262C61.9082 80.1504 61.4941 80.3125 60.9902 80.3125C60.4824 80.3125 60.0625 80.1504 59.7305 79.8262C59.3984 79.498 59.2324 79.0625 59.2324 78.5195V78.1094ZM60.041 78.5605C60.041 78.8652 60.127 79.1172 60.2988 79.3164C60.4707 79.5117 60.7012 79.6094 60.9902 79.6094C61.2676 79.6094 61.4902 79.5137 61.6582 79.3223C61.8301 79.1309 61.916 78.8691 61.916 78.5371V78.1094C61.916 77.8047 61.832 77.5527 61.6641 77.3535C61.4961 77.1543 61.2676 77.0547 60.9785 77.0547C60.6895 77.0547 60.4609 77.1543 60.293 77.3535C60.125 77.5527 60.041 77.8125 60.041 78.1328V78.5605ZM63.3867 82.9082C63.3867 82.3965 63.5488 81.9766 63.873 81.6484C64.2012 81.3164 64.6211 81.1504 65.1328 81.1504C65.6445 81.1504 66.0645 81.3145 66.3926 81.6426C66.7207 81.9707 66.8848 82.4062 66.8848 82.9492V83.3652C66.8848 83.877 66.7207 84.2988 66.3926 84.6309C66.0684 84.959 65.6523 85.123 65.1445 85.123C64.6367 85.123 64.2168 84.9609 63.8848 84.6367C63.5527 84.3086 63.3867 83.873 63.3867 83.3301V82.9082ZM64.1953 83.3652C64.1953 83.6738 64.2812 83.9277 64.4531 84.127C64.625 84.3223 64.8555 84.4199 65.1445 84.4199C65.4258 84.4199 65.6504 84.3242 65.8184 84.1328C65.9863 83.9375 66.0703 83.6738 66.0703 83.3418V82.9082C66.0703 82.5996 65.9844 82.3477 65.8125 82.1523C65.6445 81.957 65.418 81.8594 65.1328 81.8594C64.8555 81.8594 64.6289 81.957 64.4531 82.1523C64.2812 82.3438 64.1953 82.6035 64.1953 82.9316V83.3652ZM61.2363 84.3555L60.6211 83.9688L64.7871 77.3008L65.4023 77.6875L61.2363 84.3555Z" fill="white"/>
<path d="M80.207 44.7227L80.6406 40.4688H85.0117V41.4707H81.5605L81.3027 43.7969C81.7207 43.5508 82.1953 43.4277 82.7266 43.4277C83.5039 43.4277 84.1211 43.6855 84.5781 44.2012C85.0352 44.7129 85.2637 45.4062 85.2637 46.2812C85.2637 47.1602 85.0254 47.8535 84.5488 48.3613C84.0762 48.8652 83.4141 49.1172 82.5625 49.1172C81.8086 49.1172 81.1934 48.9082 80.7168 48.4902C80.2402 48.0723 79.9688 47.4941 79.9023 46.7559H80.9277C80.9941 47.2441 81.168 47.6133 81.4492 47.8633C81.7305 48.1094 82.1016 48.2324 82.5625 48.2324C83.0664 48.2324 83.4609 48.0605 83.7461 47.7168C84.0352 47.373 84.1797 46.8984 84.1797 46.293C84.1797 45.7227 84.0234 45.2656 83.7109 44.9219C83.4023 44.5742 82.9902 44.4004 82.4746 44.4004C82.002 44.4004 81.6309 44.5039 81.3613 44.7109L81.0742 44.9453L80.207 44.7227ZM86.582 48.4316C86.582 48.2441 86.6367 48.0879 86.7461 47.9629C86.8594 47.8379 87.0273 47.7754 87.25 47.7754C87.4727 47.7754 87.6406 47.8379 87.7539 47.9629C87.8711 48.0879 87.9297 48.2441 87.9297 48.4316C87.9297 48.6113 87.8711 48.7617 87.7539 48.8828C87.6406 49.0039 87.4727 49.0645 87.25 49.0645C87.0273 49.0645 86.8594 49.0039 86.7461 48.8828C86.6367 48.7617 86.582 48.6113 86.582 48.4316ZM94.7852 42.6953C94.7852 43.1211 94.6719 43.5 94.4453 43.832C94.2227 44.1641 93.9199 44.4238 93.5371 44.6113C93.9824 44.8027 94.334 45.082 94.5918 45.4492C94.8535 45.8164 94.9844 46.2324 94.9844 46.6973C94.9844 47.4355 94.7344 48.0234 94.2344 48.4609C93.7383 48.8984 93.084 49.1172 92.2715 49.1172C91.4512 49.1172 90.793 48.8984 90.2969 48.4609C89.8047 48.0195 89.5586 47.4316 89.5586 46.6973C89.5586 46.2363 89.6836 45.8203 89.9336 45.4492C90.1875 45.0781 90.5371 44.7969 90.9824 44.6055C90.6035 44.418 90.3047 44.1582 90.0859 43.8262C89.8672 43.4941 89.7578 43.1172 89.7578 42.6953C89.7578 41.9766 89.9883 41.4062 90.4492 40.9844C90.9102 40.5625 91.5176 40.3516 92.2715 40.3516C93.0215 40.3516 93.627 40.5625 94.0879 40.9844C94.5527 41.4062 94.7852 41.9766 94.7852 42.6953ZM93.9004 46.6738C93.9004 46.1973 93.748 45.8086 93.4434 45.5078C93.1426 45.207 92.748 45.0566 92.2598 45.0566C91.7715 45.0566 91.3789 45.2051 91.082 45.502C90.7891 45.7988 90.6426 46.1895 90.6426 46.6738C90.6426 47.1582 90.7852 47.5391 91.0703 47.8164C91.3594 48.0938 91.7598 48.2324 92.2715 48.2324C92.7793 48.2324 93.1777 48.0938 93.4668 47.8164C93.7559 47.5352 93.9004 47.1543 93.9004 46.6738ZM92.2715 41.2422C91.8457 41.2422 91.5 41.375 91.2344 41.6406C90.9727 41.9023 90.8418 42.2598 90.8418 42.7129C90.8418 43.1465 90.9707 43.498 91.2285 43.7676C91.4902 44.0332 91.8379 44.166 92.2715 44.166C92.7051 44.166 93.0508 44.0332 93.3086 43.7676C93.5703 43.498 93.7012 43.1465 93.7012 42.7129C93.7012 42.2793 93.5664 41.9258 93.2969 41.6523C93.0273 41.3789 92.6855 41.2422 92.2715 41.2422ZM99.2324 42.1094C99.2324 41.5977 99.3945 41.1758 99.7188 40.8438C100.047 40.5117 100.467 40.3457 100.979 40.3457C101.498 40.3457 101.918 40.5137 102.238 40.8496C102.562 41.1816 102.725 41.6133 102.725 42.1445V42.5605C102.725 43.0762 102.561 43.498 102.232 43.8262C101.908 44.1504 101.494 44.3125 100.99 44.3125C100.482 44.3125 100.062 44.1504 99.7305 43.8262C99.3984 43.498 99.2324 43.0625 99.2324 42.5195V42.1094ZM100.041 42.5605C100.041 42.8652 100.127 43.1172 100.299 43.3164C100.471 43.5117 100.701 43.6094 100.99 43.6094C101.268 43.6094 101.49 43.5137 101.658 43.3223C101.83 43.1309 101.916 42.8691 101.916 42.5371V42.1094C101.916 41.8047 101.832 41.5527 101.664 41.3535C101.496 41.1543 101.268 41.0547 100.979 41.0547C100.689 41.0547 100.461 41.1543 100.293 41.3535C100.125 41.5527 100.041 41.8125 100.041 42.1328V42.5605ZM103.387 46.9082C103.387 46.3965 103.549 45.9766 103.873 45.6484C104.201 45.3164 104.621 45.1504 105.133 45.1504C105.645 45.1504 106.064 45.3145 106.393 45.6426C106.721 45.9707 106.885 46.4062 106.885 46.9492V47.3652C106.885 47.877 106.721 48.2988 106.393 48.6309C106.068 48.959 105.652 49.123 105.145 49.123C104.637 49.123 104.217 48.9609 103.885 48.6367C103.553 48.3086 103.387 47.873 103.387 47.3301V46.9082ZM104.195 47.3652C104.195 47.6738 104.281 47.9277 104.453 48.127C104.625 48.3223 104.855 48.4199 105.145 48.4199C105.426 48.4199 105.65 48.3242 105.818 48.1328C105.986 47.9375 106.07 47.6738 106.07 47.3418V46.9082C106.07 46.5996 105.984 46.3477 105.812 46.1523C105.645 45.957 105.418 45.8594 105.133 45.8594C104.855 45.8594 104.629 45.957 104.453 46.1523C104.281 46.3438 104.195 46.6035 104.195 46.9316V47.3652ZM101.236 48.3555L100.621 47.9688L104.787 41.3008L105.402 41.6875L101.236 48.3555Z" fill="white"/>
<path d="M123.285 32.1348H124.469V33.0195H123.285V35H122.195V33.0195H118.311V32.3809L122.131 26.4688H123.285V32.1348ZM119.541 32.1348H122.195V27.9512L122.066 28.1855L119.541 32.1348ZM125.582 34.4316C125.582 34.2441 125.637 34.0879 125.746 33.9629C125.859 33.8379 126.027 33.7754 126.25 33.7754C126.473 33.7754 126.641 33.8379 126.754 33.9629C126.871 34.0879 126.93 34.2441 126.93 34.4316C126.93 34.6113 126.871 34.7617 126.754 34.8828C126.641 35.0039 126.473 35.0645 126.25 35.0645C126.027 35.0645 125.859 35.0039 125.746 34.8828C125.637 34.7617 125.582 34.6113 125.582 34.4316ZM133.961 31.3613C133.961 32.6309 133.744 33.5742 133.311 34.1914C132.877 34.8086 132.199 35.1172 131.277 35.1172C130.367 35.1172 129.693 34.8164 129.256 34.2148C128.818 33.6094 128.592 32.707 128.576 31.5078V30.0605C128.576 28.8066 128.793 27.875 129.227 27.2656C129.66 26.6562 130.34 26.3516 131.266 26.3516C132.184 26.3516 132.859 26.6465 133.293 27.2363C133.727 27.8223 133.949 28.7285 133.961 29.9551V31.3613ZM132.877 29.8789C132.877 28.9609 132.748 28.293 132.49 27.875C132.232 27.4531 131.824 27.2422 131.266 27.2422C130.711 27.2422 130.307 27.4512 130.053 27.8691C129.799 28.2871 129.668 28.9297 129.66 29.7969V31.5312C129.66 32.4531 129.793 33.1348 130.059 33.5762C130.328 34.0137 130.734 34.2324 131.277 34.2324C131.812 34.2324 132.209 34.0254 132.467 33.6113C132.729 33.1973 132.865 32.5449 132.877 31.6543V29.8789ZM138.232 28.1094C138.232 27.5977 138.395 27.1758 138.719 26.8438C139.047 26.5117 139.467 26.3457 139.979 26.3457C140.498 26.3457 140.918 26.5137 141.238 26.8496C141.562 27.1816 141.725 27.6133 141.725 28.1445V28.5605C141.725 29.0762 141.561 29.498 141.232 29.8262C140.908 30.1504 140.494 30.3125 139.99 30.3125C139.482 30.3125 139.062 30.1504 138.73 29.8262C138.398 29.498 138.232 29.0625 138.232 28.5195V28.1094ZM139.041 28.5605C139.041 28.8652 139.127 29.1172 139.299 29.3164C139.471 29.5117 139.701 29.6094 139.99 29.6094C140.268 29.6094 140.49 29.5137 140.658 29.3223C140.83 29.1309 140.916 28.8691 140.916 28.5371V28.1094C140.916 27.8047 140.832 27.5527 140.664 27.3535C140.496 27.1543 140.268 27.0547 139.979 27.0547C139.689 27.0547 139.461 27.1543 139.293 27.3535C139.125 27.5527 139.041 27.8125 139.041 28.1328V28.5605ZM142.387 32.9082C142.387 32.3965 142.549 31.9766 142.873 31.6484C143.201 31.3164 143.621 31.1504 144.133 31.1504C144.645 31.1504 145.064 31.3145 145.393 31.6426C145.721 31.9707 145.885 32.4062 145.885 32.9492V33.3652C145.885 33.877 145.721 34.2988 145.393 34.6309C145.068 34.959 144.652 35.123 144.145 35.123C143.637 35.123 143.217 34.9609 142.885 34.6367C142.553 34.3086 142.387 33.873 142.387 33.3301V32.9082ZM143.195 33.3652C143.195 33.6738 143.281 33.9277 143.453 34.127C143.625 34.3223 143.855 34.4199 144.145 34.4199C144.426 34.4199 144.65 34.3242 144.818 34.1328C144.986 33.9375 145.07 33.6738 145.07 33.3418V32.9082C145.07 32.5996 144.984 32.3477 144.812 32.1523C144.645 31.957 144.418 31.8594 144.133 31.8594C143.855 31.8594 143.629 31.957 143.453 32.1523C143.281 32.3438 143.195 32.6035 143.195 32.9316V33.3652ZM140.236 34.3555L139.621 33.9688L143.787 27.3008L144.402 27.6875L140.236 34.3555Z" fill="white"/>
</svg>
