<svg width="331" height="331" viewBox="0 0 331 331" fill="none" xmlns="http://www.w3.org/2000/svg">
<mask id="mask0_44_7" style="mask-type:alpha" maskUnits="userSpaceOnUse" x="0" y="0" width="331" height="331">
<path d="M331 165.5C331 256.903 256.903 331 165.5 331C74.0969 331 0 256.903 0 165.5C0 74.0969 74.0969 0 165.5 0C256.903 0 331 74.0969 331 165.5ZM54.0864 165.5C54.0864 227.032 103.968 276.914 165.5 276.914C227.032 276.914 276.914 227.032 276.914 165.5C276.914 103.968 227.032 54.0864 165.5 54.0864C103.968 54.0864 54.0864 103.968 54.0864 165.5Z" fill="#C4C4C4"/>
</mask>
<g mask="url(#mask0_44_7)">
<path d="M0.211357 173.858C-0.930502 151.278 2.5663 128.704 10.486 107.527C18.4058 86.3503 30.5805 67.021 46.2591 50.7314C61.9377 34.4418 80.7877 21.5374 101.646 12.8143C122.505 4.09113 144.929 -0.265722 167.537 0.0124896L166.824 57.9331C152.129 57.7523 137.553 60.5842 123.995 66.2543C110.437 71.9243 98.1846 80.3122 87.9935 90.9004C77.8024 101.489 69.8888 114.053 64.741 127.817C59.5932 141.582 57.3202 156.256 58.0624 170.933L0.211357 173.858Z" fill="#77CDE9"/>
<path d="M215.348 323.554C190.434 331.391 164.019 333.222 138.262 328.894C112.505 324.567 88.1384 314.206 67.1535 298.657C46.1686 283.108 29.1616 262.814 17.5229 239.433C5.88419 216.052 -0.0556746 190.248 0.188935 164.132L58.1114 164.674C57.9524 181.65 61.8133 198.422 69.3785 213.62C76.9436 228.817 87.9982 242.009 101.638 252.116C115.279 262.222 131.117 268.957 147.859 271.77C164.601 274.583 181.771 273.393 197.965 268.298L215.348 323.554Z" fill="#FFB84B"/>
<path d="M166.191 0.00141474C205.796 0.166811 244.029 14.5296 273.947 40.4818C303.865 66.4341 323.484 102.255 329.242 141.439C335 180.624 326.514 220.575 305.327 254.036C284.139 287.498 251.655 312.252 213.771 323.804L196.876 268.398C221.501 260.889 242.616 244.799 256.388 223.049C270.159 201.298 275.675 175.331 271.932 149.861C268.189 124.391 255.437 101.107 235.99 84.2382C216.544 67.3693 191.693 58.0334 165.949 57.9259L166.191 0.00141474Z" fill="#D761DA"/>
</g>
<path d="M53.2988 82H47.709V81.2207L50.6621 77.9395C51.0996 77.4434 51.4004 77.041 51.5645 76.7324C51.7324 76.4199 51.8164 76.0977 51.8164 75.7656C51.8164 75.3203 51.6816 74.9551 51.4121 74.6699C51.1426 74.3848 50.7832 74.2422 50.334 74.2422C49.7949 74.2422 49.375 74.3965 49.0742 74.7051C48.7773 75.0098 48.6289 75.4355 48.6289 75.9824H47.5449C47.5449 75.1973 47.7969 74.5625 48.3008 74.0781C48.8086 73.5938 49.4863 73.3516 50.334 73.3516C51.127 73.3516 51.7539 73.5605 52.2148 73.9785C52.6758 74.3926 52.9062 74.9453 52.9062 75.6367C52.9062 76.4766 52.3711 77.4766 51.3008 78.6367L49.0156 81.1152H53.2988V82ZM54.9453 77.7227L55.3789 73.4688H59.75V74.4707H56.2988L56.041 76.7969C56.459 76.5508 56.9336 76.4277 57.4648 76.4277C58.2422 76.4277 58.8594 76.6855 59.3164 77.2012C59.7734 77.7129 60.002 78.4062 60.002 79.2812C60.002 80.1602 59.7637 80.8535 59.2871 81.3613C58.8145 81.8652 58.1523 82.1172 57.3008 82.1172C56.5469 82.1172 55.9316 81.9082 55.4551 81.4902C54.9785 81.0723 54.707 80.4941 54.6406 79.7559H55.666C55.7324 80.2441 55.9062 80.6133 56.1875 80.8633C56.4688 81.1094 56.8398 81.2324 57.3008 81.2324C57.8047 81.2324 58.1992 81.0605 58.4844 80.7168C58.7734 80.373 58.918 79.8984 58.918 79.293C58.918 78.7227 58.7617 78.2656 58.4492 77.9219C58.1406 77.5742 57.7285 77.4004 57.2129 77.4004C56.7402 77.4004 56.3691 77.5039 56.0996 77.7109L55.8125 77.9453L54.9453 77.7227ZM64.0684 75.1094C64.0684 74.5977 64.2305 74.1758 64.5547 73.8438C64.8828 73.5117 65.3027 73.3457 65.8145 73.3457C66.334 73.3457 66.7539 73.5137 67.0742 73.8496C67.3984 74.1816 67.5605 74.6133 67.5605 75.1445V75.5605C67.5605 76.0762 67.3965 76.498 67.0684 76.8262C66.7441 77.1504 66.3301 77.3125 65.8262 77.3125C65.3184 77.3125 64.8984 77.1504 64.5664 76.8262C64.2344 76.498 64.0684 76.0625 64.0684 75.5195V75.1094ZM64.877 75.5605C64.877 75.8652 64.9629 76.1172 65.1348 76.3164C65.3066 76.5117 65.5371 76.6094 65.8262 76.6094C66.1035 76.6094 66.3262 76.5137 66.4941 76.3223C66.666 76.1309 66.752 75.8691 66.752 75.5371V75.1094C66.752 74.8047 66.668 74.5527 66.5 74.3535C66.332 74.1543 66.1035 74.0547 65.8145 74.0547C65.5254 74.0547 65.2969 74.1543 65.1289 74.3535C64.9609 74.5527 64.877 74.8125 64.877 75.1328V75.5605ZM68.2227 79.9082C68.2227 79.3965 68.3848 78.9766 68.709 78.6484C69.0371 78.3164 69.457 78.1504 69.9688 78.1504C70.4805 78.1504 70.9004 78.3145 71.2285 78.6426C71.5566 78.9707 71.7207 79.4062 71.7207 79.9492V80.3652C71.7207 80.877 71.5566 81.2988 71.2285 81.6309C70.9043 81.959 70.4883 82.123 69.9805 82.123C69.4727 82.123 69.0527 81.9609 68.7207 81.6367C68.3887 81.3086 68.2227 80.873 68.2227 80.3301V79.9082ZM69.0312 80.3652C69.0312 80.6738 69.1172 80.9277 69.2891 81.127C69.4609 81.3223 69.6914 81.4199 69.9805 81.4199C70.2617 81.4199 70.4863 81.3242 70.6543 81.1328C70.8223 80.9375 70.9062 80.6738 70.9062 80.3418V79.9082C70.9062 79.5996 70.8203 79.3477 70.6484 79.1523C70.4805 78.957 70.2539 78.8594 69.9688 78.8594C69.6914 78.8594 69.4648 78.957 69.2891 79.1523C69.1172 79.3438 69.0312 79.6035 69.0312 79.9316V80.3652ZM66.0723 81.3555L65.457 80.9688L69.623 74.3008L70.2383 74.6875L66.0723 81.3555Z" fill="white"/>
<path d="M297.285 168.135H298.469V169.02H297.285V171H296.195V169.02H292.311V168.381L296.131 162.469H297.285V168.135ZM293.541 168.135H296.195V163.951L296.066 164.186L293.541 168.135ZM299.945 166.723L300.379 162.469H304.75V163.471H301.299L301.041 165.797C301.459 165.551 301.934 165.428 302.465 165.428C303.242 165.428 303.859 165.686 304.316 166.201C304.773 166.713 305.002 167.406 305.002 168.281C305.002 169.16 304.764 169.854 304.287 170.361C303.814 170.865 303.152 171.117 302.301 171.117C301.547 171.117 300.932 170.908 300.455 170.49C299.979 170.072 299.707 169.494 299.641 168.756H300.666C300.732 169.244 300.906 169.613 301.188 169.863C301.469 170.109 301.84 170.232 302.301 170.232C302.805 170.232 303.199 170.061 303.484 169.717C303.773 169.373 303.918 168.898 303.918 168.293C303.918 167.723 303.762 167.266 303.449 166.922C303.141 166.574 302.729 166.4 302.213 166.4C301.74 166.4 301.369 166.504 301.1 166.711L300.812 166.945L299.945 166.723ZM309.068 164.109C309.068 163.598 309.23 163.176 309.555 162.844C309.883 162.512 310.303 162.346 310.814 162.346C311.334 162.346 311.754 162.514 312.074 162.85C312.398 163.182 312.561 163.613 312.561 164.145V164.561C312.561 165.076 312.396 165.498 312.068 165.826C311.744 166.15 311.33 166.312 310.826 166.312C310.318 166.312 309.898 166.15 309.566 165.826C309.234 165.498 309.068 165.062 309.068 164.52V164.109ZM309.877 164.561C309.877 164.865 309.963 165.117 310.135 165.316C310.307 165.512 310.537 165.609 310.826 165.609C311.104 165.609 311.326 165.514 311.494 165.322C311.666 165.131 311.752 164.869 311.752 164.537V164.109C311.752 163.805 311.668 163.553 311.5 163.354C311.332 163.154 311.104 163.055 310.814 163.055C310.525 163.055 310.297 163.154 310.129 163.354C309.961 163.553 309.877 163.812 309.877 164.133V164.561ZM313.223 168.908C313.223 168.396 313.385 167.977 313.709 167.648C314.037 167.316 314.457 167.15 314.969 167.15C315.48 167.15 315.9 167.314 316.229 167.643C316.557 167.971 316.721 168.406 316.721 168.949V169.365C316.721 169.877 316.557 170.299 316.229 170.631C315.904 170.959 315.488 171.123 314.98 171.123C314.473 171.123 314.053 170.961 313.721 170.637C313.389 170.309 313.223 169.873 313.223 169.33V168.908ZM314.031 169.365C314.031 169.674 314.117 169.928 314.289 170.127C314.461 170.322 314.691 170.42 314.98 170.42C315.262 170.42 315.486 170.324 315.654 170.133C315.822 169.938 315.906 169.674 315.906 169.342V168.908C315.906 168.6 315.82 168.348 315.648 168.152C315.48 167.957 315.254 167.859 314.969 167.859C314.691 167.859 314.465 167.957 314.289 168.152C314.117 168.344 314.031 168.604 314.031 168.932V169.365ZM311.072 170.355L310.457 169.969L314.623 163.301L315.238 163.688L311.072 170.355Z" fill="white"/>
<path d="M69.2852 275.207H70.0996C70.6113 275.199 71.0137 275.064 71.3066 274.803C71.5996 274.541 71.7461 274.188 71.7461 273.742C71.7461 272.742 71.248 272.242 70.252 272.242C69.7832 272.242 69.4082 272.377 69.127 272.646C68.8496 272.912 68.7109 273.266 68.7109 273.707H67.627C67.627 273.031 67.873 272.471 68.3652 272.025C68.8613 271.576 69.4902 271.352 70.252 271.352C71.0566 271.352 71.6875 271.564 72.1445 271.99C72.6016 272.416 72.8301 273.008 72.8301 273.766C72.8301 274.137 72.709 274.496 72.4668 274.844C72.2285 275.191 71.9023 275.451 71.4883 275.623C71.957 275.771 72.3184 276.018 72.5723 276.361C72.8301 276.705 72.959 277.125 72.959 277.621C72.959 278.387 72.709 278.994 72.209 279.443C71.709 279.893 71.0586 280.117 70.2578 280.117C69.457 280.117 68.8047 279.9 68.3008 279.467C67.8008 279.033 67.5508 278.461 67.5508 277.75H68.6406C68.6406 278.199 68.7871 278.559 69.0801 278.828C69.373 279.098 69.7656 279.232 70.2578 279.232C70.7812 279.232 71.1816 279.096 71.459 278.822C71.7363 278.549 71.875 278.156 71.875 277.645C71.875 277.148 71.7227 276.768 71.418 276.502C71.1133 276.236 70.6738 276.1 70.0996 276.092H69.2852V275.207ZM79.7969 276.361C79.7969 277.631 79.5801 278.574 79.1465 279.191C78.7129 279.809 78.0352 280.117 77.1133 280.117C76.2031 280.117 75.5293 279.816 75.0918 279.215C74.6543 278.609 74.4277 277.707 74.4121 276.508V275.061C74.4121 273.807 74.6289 272.875 75.0625 272.266C75.4961 271.656 76.1758 271.352 77.1016 271.352C78.0195 271.352 78.6953 271.646 79.1289 272.236C79.5625 272.822 79.7852 273.729 79.7969 274.955V276.361ZM78.7129 274.879C78.7129 273.961 78.584 273.293 78.3262 272.875C78.0684 272.453 77.6602 272.242 77.1016 272.242C76.5469 272.242 76.1426 272.451 75.8887 272.869C75.6348 273.287 75.5039 273.93 75.4961 274.797V276.531C75.4961 277.453 75.6289 278.135 75.8945 278.576C76.1641 279.014 76.5703 279.232 77.1133 279.232C77.6484 279.232 78.0449 279.025 78.3027 278.611C78.5645 278.197 78.7012 277.545 78.7129 276.654V274.879ZM84.0684 273.109C84.0684 272.598 84.2305 272.176 84.5547 271.844C84.8828 271.512 85.3027 271.346 85.8145 271.346C86.334 271.346 86.7539 271.514 87.0742 271.85C87.3984 272.182 87.5605 272.613 87.5605 273.145V273.561C87.5605 274.076 87.3965 274.498 87.0684 274.826C86.7441 275.15 86.3301 275.312 85.8262 275.312C85.3184 275.312 84.8984 275.15 84.5664 274.826C84.2344 274.498 84.0684 274.062 84.0684 273.52V273.109ZM84.877 273.561C84.877 273.865 84.9629 274.117 85.1348 274.316C85.3066 274.512 85.5371 274.609 85.8262 274.609C86.1035 274.609 86.3262 274.514 86.4941 274.322C86.666 274.131 86.752 273.869 86.752 273.537V273.109C86.752 272.805 86.668 272.553 86.5 272.354C86.332 272.154 86.1035 272.055 85.8145 272.055C85.5254 272.055 85.2969 272.154 85.1289 272.354C84.9609 272.553 84.877 272.812 84.877 273.133V273.561ZM88.2227 277.908C88.2227 277.396 88.3848 276.977 88.709 276.648C89.0371 276.316 89.457 276.15 89.9688 276.15C90.4805 276.15 90.9004 276.314 91.2285 276.643C91.5566 276.971 91.7207 277.406 91.7207 277.949V278.365C91.7207 278.877 91.5566 279.299 91.2285 279.631C90.9043 279.959 90.4883 280.123 89.9805 280.123C89.4727 280.123 89.0527 279.961 88.7207 279.637C88.3887 279.309 88.2227 278.873 88.2227 278.33V277.908ZM89.0312 278.365C89.0312 278.674 89.1172 278.928 89.2891 279.127C89.4609 279.322 89.6914 279.42 89.9805 279.42C90.2617 279.42 90.4863 279.324 90.6543 279.133C90.8223 278.938 90.9062 278.674 90.9062 278.342V277.908C90.9062 277.6 90.8203 277.348 90.6484 277.152C90.4805 276.957 90.2539 276.859 89.9688 276.859C89.6914 276.859 89.4648 276.957 89.2891 277.152C89.1172 277.344 89.0312 277.604 89.0312 277.932V278.365ZM86.0723 279.355L85.457 278.969L89.623 272.301L90.2383 272.688L86.0723 279.355Z" fill="white"/>
</svg>
