<svg width="331" height="331" viewBox="0 0 331 331" fill="none" xmlns="http://www.w3.org/2000/svg">
<mask id="mask0_29_341" style="mask-type:alpha" maskUnits="userSpaceOnUse" x="0" y="0" width="331" height="331">
<path d="M331 165.5C331 256.903 256.903 331 165.5 331C74.0969 331 0 256.903 0 165.5C0 74.0969 74.0969 0 165.5 0C256.903 0 331 74.0969 331 165.5ZM54.0864 165.5C54.0864 227.032 103.968 276.914 165.5 276.914C227.032 276.914 276.914 227.032 276.914 165.5C276.914 103.968 227.032 54.0864 165.5 54.0864C103.968 54.0864 54.0864 103.968 54.0864 165.5Z" fill="#C4C4C4"/>
</mask>
<g mask="url(#mask0_29_341)">
<path d="M0.671288 180.39C-1.44163 157 1.4477 133.428 9.14722 111.241C16.8468 89.0541 29.1802 68.7598 45.3279 51.7069C61.4756 34.654 81.0677 21.233 102.802 12.336C124.537 3.4389 147.916 -0.73057 171.386 0.10472L169.326 57.9931C154.07 57.4501 138.874 60.1603 124.747 65.9434C110.619 71.7265 97.8842 80.4501 87.3882 91.5345C76.8922 102.619 68.8755 115.81 63.8707 130.232C58.866 144.653 56.988 159.975 58.3614 175.178L0.671288 180.39Z" fill="#7343FA"/>
<path d="M264.366 298.541C240.572 316.214 212.469 327.174 182.992 330.274C153.516 333.374 123.747 328.501 96.7973 316.165C69.8474 303.828 46.705 284.481 29.7878 260.144C12.8707 235.807 2.79965 207.373 0.626944 177.814L58.3961 173.567C59.8084 192.781 66.3545 211.263 77.3507 227.082C88.3468 242.901 103.389 255.477 120.907 263.496C138.424 271.514 157.774 274.682 176.934 272.667C196.093 270.651 214.36 263.528 229.826 252.04L264.366 298.541Z" fill="#AAED68"/>
<path d="M166.191 0.00141474C201.141 0.147369 235.148 11.354 263.337 32.0151C291.526 52.6762 312.451 81.731 323.112 115.015C333.773 148.3 333.624 184.105 322.685 217.299C311.746 250.493 290.579 279.372 262.218 299.797L228.367 252.793C246.802 239.517 260.56 220.746 267.67 199.169C274.78 177.593 274.878 154.32 267.948 132.685C261.018 111.05 247.417 92.1645 229.094 78.7348C210.771 65.3051 188.667 58.0208 165.949 57.9259L166.191 0.00141474Z" fill="#FA9D31"/>
</g>
<path d="M292.285 144.135H293.469V145.02H292.285V147H291.195V145.02H287.311V144.381L291.131 138.469H292.285V144.135ZM288.541 144.135H291.195V139.951L291.066 140.186L288.541 144.135ZM299.797 143.361C299.797 144.631 299.58 145.574 299.146 146.191C298.713 146.809 298.035 147.117 297.113 147.117C296.203 147.117 295.529 146.816 295.092 146.215C294.654 145.609 294.428 144.707 294.412 143.508V142.061C294.412 140.807 294.629 139.875 295.062 139.266C295.496 138.656 296.176 138.352 297.102 138.352C298.02 138.352 298.695 138.646 299.129 139.236C299.562 139.822 299.785 140.729 299.797 141.955V143.361ZM298.713 141.879C298.713 140.961 298.584 140.293 298.326 139.875C298.068 139.453 297.66 139.242 297.102 139.242C296.547 139.242 296.143 139.451 295.889 139.869C295.635 140.287 295.504 140.93 295.496 141.797V143.531C295.496 144.453 295.629 145.135 295.895 145.576C296.164 146.014 296.57 146.232 297.113 146.232C297.648 146.232 298.045 146.025 298.303 145.611C298.564 145.197 298.701 144.545 298.713 143.654V141.879ZM301.262 148.699L300.646 148.277C301.014 147.766 301.205 147.238 301.221 146.695V145.717H302.281V146.566C302.281 146.961 302.184 147.355 301.988 147.75C301.797 148.145 301.555 148.461 301.262 148.699ZM308.891 143.361C308.891 144.631 308.674 145.574 308.24 146.191C307.807 146.809 307.129 147.117 306.207 147.117C305.297 147.117 304.623 146.816 304.186 146.215C303.748 145.609 303.521 144.707 303.506 143.508V142.061C303.506 140.807 303.723 139.875 304.156 139.266C304.59 138.656 305.27 138.352 306.195 138.352C307.113 138.352 307.789 138.646 308.223 139.236C308.656 139.822 308.879 140.729 308.891 141.955V143.361ZM307.807 141.879C307.807 140.961 307.678 140.293 307.42 139.875C307.162 139.453 306.754 139.242 306.195 139.242C305.641 139.242 305.236 139.451 304.982 139.869C304.729 140.287 304.598 140.93 304.59 141.797V143.531C304.59 144.453 304.723 145.135 304.988 145.576C305.258 146.014 305.664 146.232 306.207 146.232C306.742 146.232 307.139 146.025 307.396 145.611C307.658 145.197 307.795 144.545 307.807 143.654V141.879ZM313.162 140.109C313.162 139.598 313.324 139.176 313.648 138.844C313.977 138.512 314.396 138.346 314.908 138.346C315.428 138.346 315.848 138.514 316.168 138.85C316.492 139.182 316.654 139.613 316.654 140.145V140.561C316.654 141.076 316.49 141.498 316.162 141.826C315.838 142.15 315.424 142.312 314.92 142.312C314.412 142.312 313.992 142.15 313.66 141.826C313.328 141.498 313.162 141.062 313.162 140.52V140.109ZM313.971 140.561C313.971 140.865 314.057 141.117 314.229 141.316C314.4 141.512 314.631 141.609 314.92 141.609C315.197 141.609 315.42 141.514 315.588 141.322C315.76 141.131 315.846 140.869 315.846 140.537V140.109C315.846 139.805 315.762 139.553 315.594 139.354C315.426 139.154 315.197 139.055 314.908 139.055C314.619 139.055 314.391 139.154 314.223 139.354C314.055 139.553 313.971 139.812 313.971 140.133V140.561ZM317.316 144.908C317.316 144.396 317.479 143.977 317.803 143.648C318.131 143.316 318.551 143.15 319.062 143.15C319.574 143.15 319.994 143.314 320.322 143.643C320.65 143.971 320.814 144.406 320.814 144.949V145.365C320.814 145.877 320.65 146.299 320.322 146.631C319.998 146.959 319.582 147.123 319.074 147.123C318.566 147.123 318.146 146.961 317.814 146.637C317.482 146.309 317.316 145.873 317.316 145.33V144.908ZM318.125 145.365C318.125 145.674 318.211 145.928 318.383 146.127C318.555 146.322 318.785 146.42 319.074 146.42C319.355 146.42 319.58 146.324 319.748 146.133C319.916 145.938 320 145.674 320 145.342V144.908C320 144.6 319.914 144.348 319.742 144.152C319.574 143.957 319.348 143.859 319.062 143.859C318.785 143.859 318.559 143.957 318.383 144.152C318.211 144.344 318.125 144.604 318.125 144.932V145.365ZM315.166 146.355L314.551 145.969L318.717 139.301L319.332 139.688L315.166 146.355Z" fill="white"/>
<path d="M118.285 294.207H119.1C119.611 294.199 120.014 294.064 120.307 293.803C120.6 293.541 120.746 293.188 120.746 292.742C120.746 291.742 120.248 291.242 119.252 291.242C118.783 291.242 118.408 291.377 118.127 291.646C117.85 291.912 117.711 292.266 117.711 292.707H116.627C116.627 292.031 116.873 291.471 117.365 291.025C117.861 290.576 118.49 290.352 119.252 290.352C120.057 290.352 120.688 290.564 121.145 290.99C121.602 291.416 121.83 292.008 121.83 292.766C121.83 293.137 121.709 293.496 121.467 293.844C121.229 294.191 120.902 294.451 120.488 294.623C120.957 294.771 121.318 295.018 121.572 295.361C121.83 295.705 121.959 296.125 121.959 296.621C121.959 297.387 121.709 297.994 121.209 298.443C120.709 298.893 120.059 299.117 119.258 299.117C118.457 299.117 117.805 298.9 117.301 298.467C116.801 298.033 116.551 297.461 116.551 296.75H117.641C117.641 297.199 117.787 297.559 118.08 297.828C118.373 298.098 118.766 298.232 119.258 298.232C119.781 298.232 120.182 298.096 120.459 297.822C120.736 297.549 120.875 297.156 120.875 296.645C120.875 296.148 120.723 295.768 120.418 295.502C120.113 295.236 119.674 295.1 119.1 295.092H118.285V294.207ZM128.023 296.135H129.207V297.02H128.023V299H126.934V297.02H123.049V296.381L126.869 290.469H128.023V296.135ZM124.279 296.135H126.934V291.951L126.805 292.186L124.279 296.135ZM130.32 298.432C130.32 298.244 130.375 298.088 130.484 297.963C130.598 297.838 130.766 297.775 130.988 297.775C131.211 297.775 131.379 297.838 131.492 297.963C131.609 298.088 131.668 298.244 131.668 298.432C131.668 298.611 131.609 298.762 131.492 298.883C131.379 299.004 131.211 299.064 130.988 299.064C130.766 299.064 130.598 299.004 130.484 298.883C130.375 298.762 130.32 298.611 130.32 298.432ZM138.699 295.361C138.699 296.631 138.482 297.574 138.049 298.191C137.615 298.809 136.938 299.117 136.016 299.117C135.105 299.117 134.432 298.816 133.994 298.215C133.557 297.609 133.33 296.707 133.314 295.508V294.061C133.314 292.807 133.531 291.875 133.965 291.266C134.398 290.656 135.078 290.352 136.004 290.352C136.922 290.352 137.598 290.646 138.031 291.236C138.465 291.822 138.688 292.729 138.699 293.955V295.361ZM137.615 293.879C137.615 292.961 137.486 292.293 137.229 291.875C136.971 291.453 136.562 291.242 136.004 291.242C135.449 291.242 135.045 291.451 134.791 291.869C134.537 292.287 134.406 292.93 134.398 293.797V295.531C134.398 296.453 134.531 297.135 134.797 297.576C135.066 298.014 135.473 298.232 136.016 298.232C136.551 298.232 136.947 298.025 137.205 297.611C137.467 297.197 137.604 296.545 137.615 295.654V293.879ZM142.971 292.109C142.971 291.598 143.133 291.176 143.457 290.844C143.785 290.512 144.205 290.346 144.717 290.346C145.236 290.346 145.656 290.514 145.977 290.85C146.301 291.182 146.463 291.613 146.463 292.145V292.561C146.463 293.076 146.299 293.498 145.971 293.826C145.646 294.15 145.232 294.312 144.729 294.312C144.221 294.312 143.801 294.15 143.469 293.826C143.137 293.498 142.971 293.062 142.971 292.52V292.109ZM143.779 292.561C143.779 292.865 143.865 293.117 144.037 293.316C144.209 293.512 144.439 293.609 144.729 293.609C145.006 293.609 145.229 293.514 145.396 293.322C145.568 293.131 145.654 292.869 145.654 292.537V292.109C145.654 291.805 145.57 291.553 145.402 291.354C145.234 291.154 145.006 291.055 144.717 291.055C144.428 291.055 144.199 291.154 144.031 291.354C143.863 291.553 143.779 291.812 143.779 292.133V292.561ZM147.125 296.908C147.125 296.396 147.287 295.977 147.611 295.648C147.939 295.316 148.359 295.15 148.871 295.15C149.383 295.15 149.803 295.314 150.131 295.643C150.459 295.971 150.623 296.406 150.623 296.949V297.365C150.623 297.877 150.459 298.299 150.131 298.631C149.807 298.959 149.391 299.123 148.883 299.123C148.375 299.123 147.955 298.961 147.623 298.637C147.291 298.309 147.125 297.873 147.125 297.33V296.908ZM147.934 297.365C147.934 297.674 148.02 297.928 148.191 298.127C148.363 298.322 148.594 298.42 148.883 298.42C149.164 298.42 149.389 298.324 149.557 298.133C149.725 297.938 149.809 297.674 149.809 297.342V296.908C149.809 296.6 149.723 296.348 149.551 296.152C149.383 295.957 149.156 295.859 148.871 295.859C148.594 295.859 148.367 295.957 148.191 296.152C148.02 296.344 147.934 296.604 147.934 296.932V297.365ZM144.975 298.355L144.359 297.969L148.525 291.301L149.141 291.688L144.975 298.355Z" fill="white"/>
<path d="M46.2988 85H40.709V84.2207L43.6621 80.9395C44.0996 80.4434 44.4004 80.041 44.5645 79.7324C44.7324 79.4199 44.8164 79.0977 44.8164 78.7656C44.8164 78.3203 44.6816 77.9551 44.4121 77.6699C44.1426 77.3848 43.7832 77.2422 43.334 77.2422C42.7949 77.2422 42.375 77.3965 42.0742 77.7051C41.7773 78.0098 41.6289 78.4355 41.6289 78.9824H40.5449C40.5449 78.1973 40.7969 77.5625 41.3008 77.0781C41.8086 76.5938 42.4863 76.3516 43.334 76.3516C44.127 76.3516 44.7539 76.5605 45.2148 76.9785C45.6758 77.3926 45.9062 77.9453 45.9062 78.6367C45.9062 79.4766 45.3711 80.4766 44.3008 81.6367L42.0156 84.1152H46.2988V85ZM52.9551 77.0781L49.4219 85H48.2852L51.8066 77.3594H47.1895V76.4688H52.9551V77.0781ZM54.3203 84.4316C54.3203 84.2441 54.375 84.0879 54.4844 83.9629C54.5977 83.8379 54.7656 83.7754 54.9883 83.7754C55.2109 83.7754 55.3789 83.8379 55.4922 83.9629C55.6094 84.0879 55.668 84.2441 55.668 84.4316C55.668 84.6113 55.6094 84.7617 55.4922 84.8828C55.3789 85.0039 55.2109 85.0645 54.9883 85.0645C54.7656 85.0645 54.5977 85.0039 54.4844 84.8828C54.375 84.7617 54.3203 84.6113 54.3203 84.4316ZM62.6992 81.3613C62.6992 82.6309 62.4824 83.5742 62.0488 84.1914C61.6152 84.8086 60.9375 85.1172 60.0156 85.1172C59.1055 85.1172 58.4316 84.8164 57.9941 84.2148C57.5566 83.6094 57.3301 82.707 57.3145 81.5078V80.0605C57.3145 78.8066 57.5312 77.875 57.9648 77.2656C58.3984 76.6562 59.0781 76.3516 60.0039 76.3516C60.9219 76.3516 61.5977 76.6465 62.0312 77.2363C62.4648 77.8223 62.6875 78.7285 62.6992 79.9551V81.3613ZM61.6152 79.8789C61.6152 78.9609 61.4863 78.293 61.2285 77.875C60.9707 77.4531 60.5625 77.2422 60.0039 77.2422C59.4492 77.2422 59.0449 77.4512 58.791 77.8691C58.5371 78.2871 58.4062 78.9297 58.3984 79.7969V81.5312C58.3984 82.4531 58.5312 83.1348 58.7969 83.5762C59.0664 84.0137 59.4727 84.2324 60.0156 84.2324C60.5508 84.2324 60.9473 84.0254 61.2051 83.6113C61.4668 83.1973 61.6035 82.5449 61.6152 81.6543V79.8789ZM69.9473 78.1094C69.9473 77.5977 70.1094 77.1758 70.4336 76.8438C70.7617 76.5117 71.1816 76.3457 71.6934 76.3457C72.2129 76.3457 72.6328 76.5137 72.9531 76.8496C73.2773 77.1816 73.4395 77.6133 73.4395 78.1445V78.5605C73.4395 79.0762 73.2754 79.498 72.9473 79.8262C72.623 80.1504 72.209 80.3125 71.7051 80.3125C71.1973 80.3125 70.7773 80.1504 70.4453 79.8262C70.1133 79.498 69.9473 79.0625 69.9473 78.5195V78.1094ZM70.7559 78.5605C70.7559 78.8652 70.8418 79.1172 71.0137 79.3164C71.1855 79.5117 71.416 79.6094 71.7051 79.6094C71.9824 79.6094 72.2051 79.5137 72.373 79.3223C72.5449 79.1309 72.6309 78.8691 72.6309 78.5371V78.1094C72.6309 77.8047 72.5469 77.5527 72.3789 77.3535C72.2109 77.1543 71.9824 77.0547 71.6934 77.0547C71.4043 77.0547 71.1758 77.1543 71.0078 77.3535C70.8398 77.5527 70.7559 77.8125 70.7559 78.1328V78.5605ZM74.1016 82.9082C74.1016 82.3965 74.2637 81.9766 74.5879 81.6484C74.916 81.3164 75.3359 81.1504 75.8477 81.1504C76.3594 81.1504 76.7793 81.3145 77.1074 81.6426C77.4355 81.9707 77.5996 82.4062 77.5996 82.9492V83.3652C77.5996 83.877 77.4355 84.2988 77.1074 84.6309C76.7832 84.959 76.3672 85.123 75.8594 85.123C75.3516 85.123 74.9316 84.9609 74.5996 84.6367C74.2676 84.3086 74.1016 83.873 74.1016 83.3301V82.9082ZM74.9102 83.3652C74.9102 83.6738 74.9961 83.9277 75.168 84.127C75.3398 84.3223 75.5703 84.4199 75.8594 84.4199C76.1406 84.4199 76.3652 84.3242 76.5332 84.1328C76.7012 83.9375 76.7852 83.6738 76.7852 83.3418V82.9082C76.7852 82.5996 76.6992 82.3477 76.5273 82.1523C76.3594 81.957 76.1328 81.8594 75.8477 81.8594C75.5703 81.8594 75.3438 81.957 75.168 82.1523C74.9961 82.3438 74.9102 82.6035 74.9102 82.9316V83.3652ZM71.9512 84.3555L71.3359 83.9688L75.502 77.3008L76.1172 77.6875L71.9512 84.3555Z" fill="white"/>
</svg>
