<svg width="400" height="190" viewBox="0 0 400 190" fill="none" xmlns="http://www.w3.org/2000/svg">
<rect width="400" height="190" rx="15" fill="#BDA5FF"/>
<rect x="15" y="15" width="5" height="160" fill="white"/>
<path d="M50.3984 37H46.8828L40.0391 25.7734V37H36.5234V19.9375H40.0391L46.8945 31.1875V19.9375H50.3984V37ZM60.5938 37C60.4375 36.6953 60.3242 36.3164 60.2539 35.8633C59.4336 36.7773 58.3672 37.2344 57.0547 37.2344C55.8125 37.2344 54.7812 36.875 53.9609 36.1562C53.1484 35.4375 52.7422 34.5312 52.7422 33.4375C52.7422 32.0938 53.2383 31.0625 54.2305 30.3438C55.2305 29.625 56.6719 29.2617 58.5547 29.2539H60.1133V28.5273C60.1133 27.9414 59.9609 27.4727 59.6562 27.1211C59.3594 26.7695 58.8867 26.5938 58.2383 26.5938C57.668 26.5938 57.2188 26.7305 56.8906 27.0039C56.5703 27.2773 56.4102 27.6523 56.4102 28.1289H53.0234C53.0234 27.3945 53.25 26.7148 53.7031 26.0898C54.1562 25.4648 54.7969 24.9766 55.625 24.625C56.4531 24.2656 57.3828 24.0859 58.4141 24.0859C59.9766 24.0859 61.2148 24.4805 62.1289 25.2695C63.0508 26.0508 63.5117 27.1523 63.5117 28.5742V34.0703C63.5195 35.2734 63.6875 36.1836 64.0156 36.8008V37H60.5938ZM57.793 34.6445C58.293 34.6445 58.7539 34.5352 59.1758 34.3164C59.5977 34.0898 59.9102 33.7891 60.1133 33.4141V31.2344H58.8477C57.1523 31.2344 56.25 31.8203 56.1406 32.9922L56.1289 33.1914C56.1289 33.6133 56.2773 33.9609 56.5742 34.2344C56.8711 34.5078 57.2773 34.6445 57.793 34.6445ZM69.2891 24.3203L69.3945 25.7383C70.293 24.6367 71.5078 24.0859 73.0391 24.0859C74.6719 24.0859 75.793 24.7305 76.4023 26.0195C77.293 24.7305 78.5625 24.0859 80.2109 24.0859C81.5859 24.0859 82.6094 24.4883 83.2812 25.293C83.9531 26.0898 84.2891 27.293 84.2891 28.9023V37H80.8906V28.9141C80.8906 28.1953 80.75 27.6719 80.4688 27.3438C80.1875 27.0078 79.6914 26.8398 78.9805 26.8398C77.9648 26.8398 77.2617 27.3242 76.8711 28.293L76.8828 37H73.4961V28.9258C73.4961 28.1914 73.3516 27.6602 73.0625 27.332C72.7734 27.0039 72.2812 26.8398 71.5859 26.8398C70.625 26.8398 69.9297 27.2383 69.5 28.0352V37H66.1133V24.3203H69.2891ZM92.7383 37.2344C90.8789 37.2344 89.3633 36.6641 88.1914 35.5234C87.0273 34.3828 86.4453 32.8633 86.4453 30.9648V30.6367C86.4453 29.3633 86.6914 28.2266 87.1836 27.2266C87.6758 26.2188 88.3711 25.4453 89.2695 24.9062C90.1758 24.3594 91.207 24.0859 92.3633 24.0859C94.0977 24.0859 95.4609 24.6328 96.4531 25.7266C97.4531 26.8203 97.9531 28.3711 97.9531 30.3789V31.7617H89.8789C89.9883 32.5898 90.3164 33.2539 90.8633 33.7539C91.418 34.2539 92.1172 34.5039 92.9609 34.5039C94.2656 34.5039 95.2852 34.0312 96.0195 33.0859L97.6836 34.9492C97.1758 35.668 96.4883 36.2305 95.6211 36.6367C94.7539 37.0352 93.793 37.2344 92.7383 37.2344ZM92.3516 26.8281C91.6797 26.8281 91.1328 27.0547 90.7109 27.5078C90.2969 27.9609 90.0312 28.6094 89.9141 29.4531H94.625V29.1836C94.6094 28.4336 94.4062 27.8555 94.0156 27.4492C93.625 27.0352 93.0703 26.8281 92.3516 26.8281Z" fill="white"/>
<circle cx="330" cy="95" r="40" fill="white"/>
<path d="M43.7803 74.2871H38.5244V78.2246H44.668V80H36.3008V67.2031H44.6064V68.9961H38.5244V72.5293H43.7803V74.2871ZM45.6963 75.1748C45.6963 73.71 46.0361 72.5352 46.7158 71.6504C47.3955 70.7598 48.3066 70.3145 49.4492 70.3145C50.457 70.3145 51.2715 70.666 51.8926 71.3691V66.5H54.0283V80H52.0947L51.9893 79.0156C51.3506 79.7891 50.498 80.1758 49.4316 80.1758C48.3184 80.1758 47.416 79.7275 46.7246 78.8311C46.0391 77.9346 45.6963 76.7158 45.6963 75.1748ZM47.832 75.3594C47.832 76.3262 48.0166 77.082 48.3857 77.627C48.7607 78.166 49.291 78.4355 49.9766 78.4355C50.8496 78.4355 51.4883 78.0459 51.8926 77.2666V73.2061C51.5 72.4443 50.8672 72.0635 49.9941 72.0635C49.3027 72.0635 48.7695 72.3389 48.3945 72.8896C48.0195 73.4346 47.832 74.2578 47.832 75.3594ZM62.0176 79.0684C61.3906 79.8066 60.5 80.1758 59.3457 80.1758C58.3145 80.1758 57.5322 79.874 56.999 79.2705C56.4717 78.667 56.208 77.7939 56.208 76.6514V70.4902H58.3438V76.625C58.3438 77.832 58.8447 78.4355 59.8467 78.4355C60.8838 78.4355 61.584 78.0635 61.9473 77.3193V70.4902H64.083V80H62.0703L62.0176 79.0684ZM70.165 78.4707C70.6982 78.4707 71.1406 78.3154 71.4922 78.0049C71.8438 77.6943 72.0312 77.3105 72.0547 76.8535H74.0674C74.0439 77.4453 73.8594 77.999 73.5137 78.5146C73.168 79.0244 72.6992 79.4287 72.1074 79.7275C71.5156 80.0264 70.877 80.1758 70.1914 80.1758C68.8613 80.1758 67.8066 79.7451 67.0273 78.8838C66.248 78.0225 65.8584 76.833 65.8584 75.3154V75.0957C65.8584 73.6484 66.2451 72.4912 67.0186 71.624C67.792 70.751 68.8467 70.3145 70.1826 70.3145C71.3135 70.3145 72.2334 70.6455 72.9424 71.3076C73.6572 71.9639 74.0322 72.8281 74.0674 73.9004H72.0547C72.0312 73.3555 71.8438 72.9072 71.4922 72.5557C71.1465 72.2041 70.7041 72.0283 70.165 72.0283C69.4736 72.0283 68.9404 72.2803 68.5654 72.7842C68.1904 73.2822 68 74.041 67.9941 75.0605V75.4033C67.9941 76.4346 68.1787 77.2051 68.5479 77.7148C68.9229 78.2188 69.4619 78.4707 70.165 78.4707ZM81.3623 80C81.2686 79.8184 81.1865 79.5225 81.1162 79.1123C80.4365 79.8213 79.6045 80.1758 78.6201 80.1758C77.665 80.1758 76.8857 79.9033 76.2822 79.3584C75.6787 78.8135 75.377 78.1396 75.377 77.3369C75.377 76.3232 75.752 75.5469 76.502 75.0078C77.2578 74.4629 78.3359 74.1904 79.7363 74.1904H81.0459V73.5664C81.0459 73.0742 80.9082 72.6816 80.6328 72.3887C80.3574 72.0898 79.9385 71.9404 79.376 71.9404C78.8896 71.9404 78.4912 72.0635 78.1807 72.3096C77.8701 72.5498 77.7148 72.8574 77.7148 73.2324H75.5791C75.5791 72.7109 75.752 72.2246 76.0977 71.7734C76.4434 71.3164 76.9121 70.959 77.5039 70.7012C78.1016 70.4434 78.7666 70.3145 79.499 70.3145C80.6123 70.3145 81.5 70.5957 82.1621 71.1582C82.8242 71.7148 83.1641 72.5 83.1816 73.5137V77.8027C83.1816 78.6582 83.3018 79.3408 83.542 79.8506V80H81.3623ZM79.0156 78.4619C79.4375 78.4619 79.833 78.3594 80.2021 78.1543C80.5771 77.9492 80.8584 77.6738 81.0459 77.3281V75.5352H79.8945C79.1035 75.5352 78.5088 75.6729 78.1104 75.9482C77.7119 76.2236 77.5127 76.6133 77.5127 77.1172C77.5127 77.5273 77.6475 77.8555 77.917 78.1016C78.1924 78.3418 78.5586 78.4619 79.0156 78.4619ZM88.0947 68.1787V70.4902H89.7734V72.0723H88.0947V77.3809C88.0947 77.7441 88.165 78.0078 88.3057 78.1719C88.4521 78.3301 88.71 78.4092 89.0791 78.4092C89.3252 78.4092 89.5742 78.3799 89.8262 78.3213V79.9736C89.3398 80.1084 88.8711 80.1758 88.4199 80.1758C86.7793 80.1758 85.959 79.2705 85.959 77.46V72.0723H84.3945V70.4902H85.959V68.1787H88.0947ZM93.6846 80H91.5488V70.4902H93.6846V80ZM91.417 68.0205C91.417 67.6924 91.5195 67.4199 91.7246 67.2031C91.9355 66.9863 92.2344 66.8779 92.6211 66.8779C93.0078 66.8779 93.3066 66.9863 93.5176 67.2031C93.7285 67.4199 93.834 67.6924 93.834 68.0205C93.834 68.3428 93.7285 68.6123 93.5176 68.8291C93.3066 69.04 93.0078 69.1455 92.6211 69.1455C92.2344 69.1455 91.9355 69.04 91.7246 68.8291C91.5195 68.6123 91.417 68.3428 91.417 68.0205ZM95.6182 75.1572C95.6182 74.2256 95.8027 73.3877 96.1719 72.6436C96.541 71.8936 97.0596 71.3193 97.7275 70.9209C98.3955 70.5166 99.1631 70.3145 100.03 70.3145C101.313 70.3145 102.354 70.7275 103.15 71.5537C103.953 72.3799 104.387 73.4756 104.451 74.8408L104.46 75.3418C104.46 76.2793 104.278 77.1172 103.915 77.8555C103.558 78.5938 103.042 79.165 102.368 79.5693C101.7 79.9736 100.927 80.1758 100.048 80.1758C98.7061 80.1758 97.6309 79.7305 96.8223 78.8398C96.0195 77.9434 95.6182 76.751 95.6182 75.2627V75.1572ZM97.7539 75.3418C97.7539 76.3203 97.9561 77.0879 98.3604 77.6445C98.7646 78.1953 99.3271 78.4707 100.048 78.4707C100.769 78.4707 101.328 78.1895 101.727 77.627C102.131 77.0645 102.333 76.2412 102.333 75.1572C102.333 74.1963 102.125 73.4346 101.709 72.8721C101.299 72.3096 100.739 72.0283 100.03 72.0283C99.333 72.0283 98.7793 72.3066 98.3691 72.8633C97.959 73.4141 97.7539 74.2402 97.7539 75.3418ZM108.248 70.4902L108.31 71.5889C109.013 70.7393 109.936 70.3145 111.078 70.3145C113.059 70.3145 114.066 71.4482 114.102 73.7158V80H111.966V73.8389C111.966 73.2354 111.834 72.79 111.57 72.5029C111.312 72.21 110.888 72.0635 110.296 72.0635C109.435 72.0635 108.793 72.4531 108.371 73.2324V80H106.235V70.4902H108.248Z" fill="white"/>
<path d="M42.9893 127.704C42.9893 127.142 42.79 126.708 42.3916 126.403C41.999 126.099 41.2871 125.791 40.2559 125.48C39.2246 125.17 38.4043 124.824 37.7949 124.443C36.6289 123.711 36.0459 122.756 36.0459 121.578C36.0459 120.547 36.4648 119.697 37.3027 119.029C38.1465 118.361 39.2393 118.027 40.5811 118.027C41.4717 118.027 42.2656 118.191 42.9629 118.52C43.6602 118.848 44.208 119.316 44.6064 119.926C45.0049 120.529 45.2041 121.2 45.2041 121.938H42.9893C42.9893 121.271 42.7783 120.749 42.3564 120.374C41.9404 119.993 41.3428 119.803 40.5635 119.803C39.8369 119.803 39.2715 119.958 38.8672 120.269C38.4688 120.579 38.2695 121.013 38.2695 121.569C38.2695 122.038 38.4863 122.431 38.9199 122.747C39.3535 123.058 40.0684 123.362 41.0645 123.661C42.0605 123.954 42.8604 124.291 43.4639 124.672C44.0674 125.047 44.5098 125.48 44.791 125.973C45.0723 126.459 45.2129 127.03 45.2129 127.687C45.2129 128.753 44.8027 129.603 43.9824 130.235C43.168 130.862 42.0605 131.176 40.6602 131.176C39.7344 131.176 38.8818 131.006 38.1025 130.666C37.3291 130.32 36.7256 129.846 36.292 129.242C35.8643 128.639 35.6504 127.936 35.6504 127.133H37.874C37.874 127.859 38.1143 128.422 38.5947 128.82C39.0752 129.219 39.7637 129.418 40.6602 129.418C41.4336 129.418 42.0137 129.263 42.4004 128.952C42.793 128.636 42.9893 128.22 42.9893 127.704ZM50.0469 126.922L49.0977 127.897V131H46.9619V117.5H49.0977V125.287L49.7656 124.452L52.3936 121.49H54.96L51.4268 125.454L55.3379 131H52.8682L50.0469 126.922ZM58.6338 131H56.498V121.49H58.6338V131ZM56.3662 119.021C56.3662 118.692 56.4688 118.42 56.6738 118.203C56.8848 117.986 57.1836 117.878 57.5703 117.878C57.957 117.878 58.2559 117.986 58.4668 118.203C58.6777 118.42 58.7832 118.692 58.7832 119.021C58.7832 119.343 58.6777 119.612 58.4668 119.829C58.2559 120.04 57.957 120.146 57.5703 120.146C57.1836 120.146 56.8848 120.04 56.6738 119.829C56.4688 119.612 56.3662 119.343 56.3662 119.021ZM63.2393 131H61.1035V117.5H63.2393V131ZM67.8447 131H65.709V117.5H67.8447V131ZM75.5088 128.416C75.5088 128.035 75.3506 127.745 75.0342 127.546C74.7236 127.347 74.2051 127.171 73.4785 127.019C72.752 126.866 72.1455 126.673 71.6592 126.438C70.5928 125.923 70.0596 125.176 70.0596 124.197C70.0596 123.377 70.4053 122.691 71.0967 122.141C71.7881 121.59 72.667 121.314 73.7334 121.314C74.8701 121.314 75.7871 121.596 76.4844 122.158C77.1875 122.721 77.5391 123.45 77.5391 124.347H75.4033C75.4033 123.937 75.251 123.597 74.9463 123.327C74.6416 123.052 74.2373 122.914 73.7334 122.914C73.2646 122.914 72.8809 123.022 72.582 123.239C72.2891 123.456 72.1426 123.746 72.1426 124.109C72.1426 124.438 72.2803 124.692 72.5557 124.874C72.8311 125.056 73.3877 125.24 74.2256 125.428C75.0635 125.609 75.7197 125.829 76.1943 126.087C76.6748 126.339 77.0293 126.644 77.2578 127.001C77.4922 127.358 77.6094 127.792 77.6094 128.302C77.6094 129.157 77.2549 129.852 76.5459 130.385C75.8369 130.912 74.9082 131.176 73.7598 131.176C72.9805 131.176 72.2861 131.035 71.6768 130.754C71.0674 130.473 70.5928 130.086 70.2529 129.594C69.9131 129.102 69.7432 128.571 69.7432 128.003H71.8174C71.8467 128.507 72.0371 128.896 72.3887 129.172C72.7402 129.441 73.2061 129.576 73.7861 129.576C74.3486 129.576 74.7764 129.471 75.0693 129.26C75.3623 129.043 75.5088 128.762 75.5088 128.416Z" fill="white"/>
</svg>
