<svg width="301" height="72" viewBox="0 0 301 72" fill="none" xmlns="http://www.w3.org/2000/svg">
<rect width="301" height="72" rx="6" fill="#1A35C4"/>
<path d="M67.0117 44H64.75V28.7891H56.3359V44H54.0859V26.9375H67.0117V44ZM70.1992 37.543C70.1992 36.3008 70.4414 35.1836 70.9258 34.1914C71.418 33.1992 72.0977 32.4336 72.9648 31.8945C73.8398 31.3555 74.8359 31.0859 75.9531 31.0859C77.6797 31.0859 79.0742 31.6836 80.1367 32.8789C81.207 34.0742 81.7422 35.6641 81.7422 37.6484V37.8008C81.7422 39.0352 81.5039 40.1445 81.0273 41.1289C80.5586 42.1055 79.8828 42.8672 79 43.4141C78.125 43.9609 77.1172 44.2344 75.9766 44.2344C74.2578 44.2344 72.8633 43.6367 71.793 42.4414C70.7305 41.2461 70.1992 39.6641 70.1992 37.6953V37.543ZM72.3789 37.8008C72.3789 39.207 72.7031 40.3359 73.3516 41.1875C74.0078 42.0391 74.8828 42.4648 75.9766 42.4648C77.0781 42.4648 77.9531 42.0352 78.6016 41.1758C79.25 40.3086 79.5742 39.0977 79.5742 37.543C79.5742 36.1523 79.2422 35.0273 78.5781 34.168C77.9219 33.3008 77.0469 32.8672 75.9531 32.8672C74.8828 32.8672 74.0195 33.293 73.3633 34.1445C72.707 34.9961 72.3789 36.2148 72.3789 37.8008ZM92.6641 31.3203H94.832V44H92.6641V34.7539L86.8164 44H84.6484V31.3203H86.8164V40.5781L92.6641 31.3203ZM103.398 42.4648C104.172 42.4648 104.848 42.2305 105.426 41.7617C106.004 41.293 106.324 40.707 106.387 40.0039H108.438C108.398 40.7305 108.148 41.4219 107.688 42.0781C107.227 42.7344 106.609 43.2578 105.836 43.6484C105.07 44.0391 104.258 44.2344 103.398 44.2344C101.672 44.2344 100.297 43.6602 99.2734 42.5117C98.2578 41.3555 97.75 39.7773 97.75 37.7773V37.4141C97.75 36.1797 97.9766 35.082 98.4297 34.1211C98.8828 33.1602 99.5312 32.4141 100.375 31.8828C101.227 31.3516 102.23 31.0859 103.387 31.0859C104.809 31.0859 105.988 31.5117 106.926 32.3633C107.871 33.2148 108.375 34.3203 108.438 35.6797H106.387C106.324 34.8594 106.012 34.1875 105.449 33.6641C104.895 33.1328 104.207 32.8672 103.387 32.8672C102.285 32.8672 101.43 33.2656 100.82 34.0625C100.219 34.8516 99.918 35.9961 99.918 37.4961V37.9062C99.918 39.3672 100.219 40.4922 100.82 41.2812C101.422 42.0703 102.281 42.4648 103.398 42.4648ZM114.824 38.5977H113.242V44H111.062V31.3203H113.242V36.6875H114.66L118.926 31.3203H121.551L116.535 37.4141L121.973 44H119.219L114.824 38.5977ZM129.988 44V31.3203H134.934C136.621 31.3203 137.914 31.6172 138.812 32.2109C139.719 32.7969 140.172 33.6602 140.172 34.8008C140.172 35.3867 139.996 35.918 139.645 36.3945C139.293 36.8633 138.773 37.2227 138.086 37.4727C138.852 37.6523 139.465 38.0039 139.926 38.5273C140.395 39.0508 140.629 39.6758 140.629 40.4023C140.629 41.5664 140.199 42.457 139.34 43.0742C138.488 43.6914 137.281 44 135.719 44H129.988ZM132.156 38.4336V42.2539H135.742C136.648 42.2539 137.324 42.0859 137.77 41.75C138.223 41.4141 138.449 40.9414 138.449 40.332C138.449 39.0664 137.52 38.4336 135.66 38.4336H132.156ZM132.156 36.6992H134.957C136.988 36.6992 138.004 36.1055 138.004 34.918C138.004 33.7305 137.043 33.1172 135.121 33.0781H132.156V36.6992ZM151.328 44C151.203 43.75 151.102 43.3047 151.023 42.6641C150.016 43.7109 148.812 44.2344 147.414 44.2344C146.164 44.2344 145.137 43.8828 144.332 43.1797C143.535 42.4688 143.137 41.5703 143.137 40.4844C143.137 39.1641 143.637 38.1406 144.637 37.4141C145.645 36.6797 147.059 36.3125 148.879 36.3125H150.988V35.3164C150.988 34.5586 150.762 33.957 150.309 33.5117C149.855 33.0586 149.188 32.832 148.305 32.832C147.531 32.832 146.883 33.0273 146.359 33.418C145.836 33.8086 145.574 34.2812 145.574 34.8359H143.395C143.395 34.2031 143.617 33.5938 144.062 33.0078C144.516 32.4141 145.125 31.9453 145.891 31.6016C146.664 31.2578 147.512 31.0859 148.434 31.0859C149.895 31.0859 151.039 31.4531 151.867 32.1875C152.695 32.9141 153.125 33.918 153.156 35.1992V41.0352C153.156 42.1992 153.305 43.125 153.602 43.8125V44H151.328ZM147.73 42.3477C148.41 42.3477 149.055 42.1719 149.664 41.8203C150.273 41.4688 150.715 41.0117 150.988 40.4492V37.8477H149.289C146.633 37.8477 145.305 38.625 145.305 40.1797C145.305 40.8594 145.531 41.3906 145.984 41.7734C146.438 42.1562 147.02 42.3477 147.73 42.3477ZM160.504 38.5977H158.922V44H156.742V31.3203H158.922V36.6875H160.34L164.605 31.3203H167.23L162.215 37.4141L167.652 44H164.898L160.504 38.5977ZM177.344 44C177.219 43.75 177.117 43.3047 177.039 42.6641C176.031 43.7109 174.828 44.2344 173.43 44.2344C172.18 44.2344 171.152 43.8828 170.348 43.1797C169.551 42.4688 169.152 41.5703 169.152 40.4844C169.152 39.1641 169.652 38.1406 170.652 37.4141C171.66 36.6797 173.074 36.3125 174.895 36.3125H177.004V35.3164C177.004 34.5586 176.777 33.957 176.324 33.5117C175.871 33.0586 175.203 32.832 174.32 32.832C173.547 32.832 172.898 33.0273 172.375 33.418C171.852 33.8086 171.59 34.2812 171.59 34.8359H169.41C169.41 34.2031 169.633 33.5938 170.078 33.0078C170.531 32.4141 171.141 31.9453 171.906 31.6016C172.68 31.2578 173.527 31.0859 174.449 31.0859C175.91 31.0859 177.055 31.4531 177.883 32.1875C178.711 32.9141 179.141 33.918 179.172 35.1992V41.0352C179.172 42.1992 179.32 43.125 179.617 43.8125V44H177.344ZM173.746 42.3477C174.426 42.3477 175.07 42.1719 175.68 41.8203C176.289 41.4688 176.73 41.0117 177.004 40.4492V37.8477H175.305C172.648 37.8477 171.32 38.625 171.32 40.1797C171.32 40.8594 171.547 41.3906 172 41.7734C172.453 42.1562 173.035 42.3477 173.746 42.3477ZM186.52 38.5977H184.938V44H182.758V31.3203H184.938V36.6875H186.355L190.621 31.3203H193.246L188.23 37.4141L193.668 44H190.914L186.52 38.5977ZM205.891 44H203.723V38.5859H197.898V44H195.719V31.3203H197.898V36.8164H203.723V31.3203H205.891V44ZM214.469 42.4648C215.242 42.4648 215.918 42.2305 216.496 41.7617C217.074 41.293 217.395 40.707 217.457 40.0039H219.508C219.469 40.7305 219.219 41.4219 218.758 42.0781C218.297 42.7344 217.68 43.2578 216.906 43.6484C216.141 44.0391 215.328 44.2344 214.469 44.2344C212.742 44.2344 211.367 43.6602 210.344 42.5117C209.328 41.3555 208.82 39.7773 208.82 37.7773V37.4141C208.82 36.1797 209.047 35.082 209.5 34.1211C209.953 33.1602 210.602 32.4141 211.445 31.8828C212.297 31.3516 213.301 31.0859 214.457 31.0859C215.879 31.0859 217.059 31.5117 217.996 32.3633C218.941 33.2148 219.445 34.3203 219.508 35.6797H217.457C217.395 34.8594 217.082 34.1875 216.52 33.6641C215.965 33.1328 215.277 32.8672 214.457 32.8672C213.355 32.8672 212.5 33.2656 211.891 34.0625C211.289 34.8516 210.988 35.9961 210.988 37.4961V37.9062C210.988 39.3672 211.289 40.4922 211.891 41.2812C212.492 42.0703 213.352 42.4648 214.469 42.4648ZM230.148 31.3203H232.316V44H230.148V34.7539L224.301 44H222.133V31.3203H224.301V40.5781L230.148 31.3203ZM244 31.3203H246.168V44H244V34.7539L238.152 44H235.984V31.3203H238.152V40.5781L244 31.3203ZM244.586 26.7031C244.586 27.6484 244.262 28.4102 243.613 28.9883C242.973 29.5586 242.129 29.8438 241.082 29.8438C240.035 29.8438 239.188 29.5547 238.539 28.9766C237.891 28.3984 237.566 27.6406 237.566 26.7031H239.336C239.336 27.25 239.484 27.6797 239.781 27.9922C240.078 28.2969 240.512 28.4492 241.082 28.4492C241.629 28.4492 242.055 28.2969 242.359 27.9922C242.672 27.6875 242.828 27.2578 242.828 26.7031H244.586Z" fill="white"/>
</svg>
