<svg width="20" height="20" viewBox="0 0 20 20" fill="none" xmlns="http://www.w3.org/2000/svg">
<path d="M18.5056 17.3275L13.5949 12.4166C14.6377 11.0741 15.1296 9.38456 14.9704 7.69204C14.8112 5.99953 14.013 4.43132 12.7381 3.30672C11.4633 2.1821 9.80781 1.58563 8.10866 1.63877C6.40952 1.69189 4.7945 2.39062 3.59244 3.59268C2.39038 4.79475 1.69165 6.40977 1.63852 8.10891C1.58539 9.80806 2.18186 11.4636 3.30647 12.7384C4.43108 14.0132 5.99929 14.8115 7.6918 14.9706C9.38431 15.1298 11.0738 14.638 12.4164 13.5951L17.3272 18.5058L18.5056 17.3275ZM8.3331 13.3333C7.34419 13.3333 6.3775 13.0401 5.55525 12.4907C4.733 11.9413 4.09214 11.1604 3.7137 10.2467C3.33526 9.33314 3.23625 8.3278 3.42917 7.35789C3.6221 6.38798 4.0983 5.49707 4.79756 4.79781C5.49683 4.09855 6.38774 3.62234 7.35765 3.42942C8.32755 3.23649 9.3329 3.33551 10.2465 3.71395C11.1601 4.09238 11.9411 4.73325 12.4905 5.55549C13.0398 6.37774 13.3331 7.34443 13.3331 8.33334C13.3316 9.65897 12.8043 10.9299 11.867 11.8672C10.9296 12.8046 9.65873 13.3318 8.3331 13.3333Z" fill="#032AF9"/>
</svg>
