<svg width="395" height="284" viewBox="0 0 395 284" fill="none" xmlns="http://www.w3.org/2000/svg">
<path d="M202.38 191.037L202.456 191.185L202.53 191.334L202.603 191.485L202.674 191.637L202.744 191.79L202.812 191.945L202.878 192.101L202.942 192.259L203.005 192.418L203.066 192.578L203.126 192.74L203.183 192.903L203.239 193.067L203.293 193.232L203.345 193.399L203.395 193.567L203.443 193.736L203.49 193.906L203.534 194.077L203.577 194.25L203.618 194.423L203.656 194.598L203.693 194.774L203.728 194.951L203.76 195.129L203.791 195.308L203.819 195.488L203.846 195.669L203.87 195.85L203.892 196.033L203.912 196.217L203.93 196.401L203.946 196.587L203.959 196.773L203.971 196.96L203.98 197.148L203.987 197.337L203.991 197.526L203.994 197.716L203.994 197.907L203.992 198.098L203.987 198.29L203.98 198.483L203.971 198.676L203.96 198.87L203.946 199.065L203.93 199.26L203.911 199.455L203.89 199.651L203.867 199.847L203.841 200.044L203.813 200.241L203.782 200.438L203.749 200.636L203.713 200.834L203.675 201.033L203.635 201.231L203.592 201.43L203.546 201.629L203.498 201.828L203.448 202.027L203.395 202.227L203.339 202.426L203.281 202.626L203.22 202.825L203.157 203.025L203.091 203.224L203.023 203.424L202.952 203.623L202.879 203.822L202.803 204.022L202.724 204.22L202.643 204.419L202.56 204.617L202.473 204.816L202.384 205.014L202.293 205.211L202.199 205.408L202.102 205.605L202.003 205.801L201.901 205.997L201.797 206.193L201.69 206.387L201.58 206.582L201.468 206.776L201.353 206.969L201.235 207.161L201.115 207.353L200.993 207.544L200.868 207.735L200.74 207.925L200.609 208.113L200.477 208.302L200.341 208.489L200.203 208.675L200.062 208.861L199.919 209.045L199.773 209.229L199.625 209.411L199.474 209.593L199.321 209.773L199.165 209.953L199.007 210.131L198.846 210.308L198.682 210.484L198.517 210.659L198.348 210.832L198.177 211.004L198.004 211.175L197.828 211.345L197.65 211.513L197.469 211.68L197.286 211.845L197.101 212.009L196.913 212.171L196.723 212.332L196.53 212.492L196.335 212.649L196.138 212.806L195.938 212.96L195.736 213.113L195.532 213.264L195.325 213.414L195.116 213.562L194.905 213.708L194.692 213.852L194.476 213.994L194.259 214.135L194.039 214.273L193.816 214.41L193.592 214.545L193.366 214.677L193.137 214.808L192.906 214.937L192.674 215.063L192.439 215.188L192.202 215.311L191.963 215.431L191.723 215.549L191.48 215.665L191.235 215.779L190.988 215.891L190.74 216L190.489 216.107L190.237 216.212L189.983 216.314L189.727 216.414L189.469 216.511L189.209 216.607L188.948 216.699L188.685 216.79L188.42 216.878L188.154 216.963L187.886 217.046L187.616 217.126L187.345 217.203L187.072 217.278L186.798 217.351L186.522 217.421L186.244 217.488L185.966 217.552L185.685 217.614L185.404 217.673L185.121 217.729L184.837 217.782L184.551 217.833L184.264 217.881L183.976 217.926L183.687 217.968L183.396 218.007L183.104 218.044L182.812 218.077L182.518 218.108L182.223 218.135L181.927 218.16L181.63 218.182L181.332 218.2L181.033 218.216L180.733 218.229L180.433 218.239L180.131 218.245L179.829 218.249L179.526 218.249L179.222 218.246L178.917 218.241L178.612 218.232L178.307 218.22L178 218.205L177.693 218.186L177.386 218.165L177.078 218.14L176.77 218.112L176.461 218.081L176.152 218.047L175.842 218.009L175.533 217.968L175.223 217.924L174.912 217.877L174.602 217.826L174.291 217.772L173.98 217.715L173.67 217.655L173.359 217.591L173.048 217.524L172.737 217.453L172.426 217.38L172.116 217.303L171.805 217.222L171.495 217.139L171.185 217.052L170.875 216.961L170.565 216.868L170.256 216.771L169.947 216.67L169.639 216.566L169.331 216.459L169.024 216.349L168.717 216.235L168.41 216.118L168.105 215.997L167.8 215.873L167.495 215.746L167.192 215.615L166.889 215.481L166.587 215.344L166.286 215.203L165.985 215.059L165.686 214.912L165.388 214.761L165.09 214.607L164.794 214.449L164.499 214.289L164.205 214.124L163.912 213.957L163.62 213.786L163.329 213.612L163.04 213.435L162.752 213.254L162.466 213.07L162.181 212.883L161.897 212.693L161.615 212.499L161.335 212.302L161.056 212.102L160.778 211.898L160.503 211.692L160.228 211.482L159.956 211.269L159.686 211.052L159.417 210.833L159.15 210.61L158.885 210.385L158.622 210.156L158.361 209.924L158.102 209.689L157.844 209.451L157.589 209.209L157.337 208.965L157.086 208.718L156.837 208.467L156.591 208.214L156.347 207.958L156.105 207.698L155.866 207.436L155.629 207.171L155.394 206.903L155.162 206.632L154.932 206.358L154.705 206.081L154.481 205.802L154.259 205.52L154.039 205.235L153.823 204.947L153.609 204.656L153.398 204.363L153.189 204.067L152.984 203.768L152.781 203.467L152.581 203.163L152.384 202.856L152.19 202.547L151.999 202.236L151.811 201.921L151.626 201.605L151.444 201.286L151.266 200.964L151.09 200.64L150.918 200.314L150.749 199.985L150.583 199.654L150.42 199.321L150.261 198.985L150.105 198.648L149.952 198.308L149.803 197.966L149.657 197.621L149.515 197.275L149.376 196.927L149.241 196.576L149.109 196.224L148.981 195.869L148.856 195.513L148.735 195.154L148.618 194.794L148.504 194.432L148.394 194.068L148.288 193.703L148.186 193.336L148.087 192.966L147.993 192.596L147.902 192.224L147.815 191.85L147.732 191.474L147.652 191.097L147.577 190.719L147.506 190.339L147.438 189.958L147.375 189.575L147.316 189.191L147.26 188.806L147.209 188.419L147.162 188.032L147.119 187.643L147.08 187.253L147.045 186.862L147.015 186.47L146.988 186.077L146.966 185.683L146.948 185.288L146.934 184.892L146.925 184.495L146.92 184.097L146.919 183.699L146.922 183.3L146.93 182.901L146.942 182.5L146.958 182.099L146.979 181.698L147.004 181.296L147.034 180.894L147.067 180.491L147.106 180.088L147.148 179.685L147.196 179.281L147.247 178.877L147.303 178.473L147.364 178.069L147.428 177.664L147.498 177.26L147.572 176.856L147.65 176.451L147.733 176.047L147.82 175.643L147.912 175.239L148.008 174.835L148.109 174.432L148.215 174.029L148.325 173.626L148.439 173.224L148.558 172.822L148.681 172.42L148.809 172.019L148.942 171.619L149.079 171.22L149.221 170.821L149.367 170.422L149.517 170.025L149.673 169.628L149.832 169.233L149.996 168.838L150.165 168.444L150.338 168.051L150.516 167.66L150.698 167.269L150.885 166.88L151.076 166.492L151.272 166.105L151.472 165.719L151.677 165.335L151.886 164.952L152.1 164.57L152.318 164.19L152.54 163.812L152.767 163.435L152.999 163.06L153.234 162.686L153.475 162.315L153.719 161.944L153.968 161.576L154.221 161.21L154.479 160.846L154.741 160.483L155.007 160.123L155.277 159.764L155.552 159.408L155.831 159.054L156.114 158.702L156.402 158.352L156.693 158.005L156.989 157.66L157.289 157.317L157.593 156.977L157.902 156.639L158.214 156.304L158.531 155.971L158.851 155.641L159.176 155.313L159.504 154.988L159.837 154.666L160.174 154.347L160.514 154.031L160.858 153.717L161.207 153.406L161.559 153.099L161.915 152.794L162.275 152.492L162.638 152.193L163.006 151.898L163.377 151.606L163.752 151.317L164.13 151.031L164.512 150.748L164.898 150.469L165.287 150.193L165.68 149.921L166.076 149.652L166.476 149.386L166.879 149.124L167.286 148.866L167.696 148.611L168.109 148.36L168.526 148.112L168.946 147.869L169.369 147.629L169.795 147.393L170.225 147.16L170.657 146.932L171.093 146.708L171.532 146.487L171.974 146.271L172.418 146.058L172.866 145.85L173.317 145.645L173.77 145.445L174.226 145.249L174.685 145.057L175.147 144.869L175.611 144.686L176.078 144.507L176.548 144.332L177.02 144.162L177.495 143.996L177.972 143.834L178.451 143.677L178.933 143.525L179.417 143.376L179.904 143.233L180.393 143.094L180.883 142.959L181.377 142.83L181.872 142.705L182.369 142.584L182.868 142.468L183.369 142.357L183.872 142.251L184.377 142.15L184.884 142.053L185.392 141.961L185.902 141.874L186.414 141.792L186.927 141.715L187.442 141.643L187.959 141.576L188.476 141.513L188.996 141.456L189.516 141.404L190.038 141.357L190.561 141.314L191.085 141.277L191.611 141.245L192.137 141.218L192.665 141.196L193.193 141.18L193.722 141.168L194.253 141.162L194.784 141.161L195.315 141.165L195.848 141.174L196.381 141.189L196.915 141.208L197.449 141.233L197.983 141.264L198.518 141.299L199.054 141.34L199.589 141.386L200.125 141.438L200.661 141.495L201.197 141.557L201.734 141.624L202.27 141.697L202.806 141.775L203.342 141.859L203.878 141.947L204.414 142.042L204.949 142.141L205.484 142.246L206.019 142.357L206.553 142.472L207.087 142.593L207.62 142.72L208.153 142.852L208.684 142.989L209.216 143.132L209.746 143.28L210.275 143.433L210.803 143.592L211.331 143.756L211.857 143.926L212.383 144.101L212.907 144.281L213.429 144.467L213.951 144.658L214.471 144.855L214.99 145.056L215.507 145.263L216.023 145.476L216.537 145.694L217.05 145.917L217.561 146.145L218.07 146.379L218.577 146.618L219.082 146.862L219.586 147.111L220.087 147.366L220.587 147.626L221.084 147.891L221.579 148.161L222.072 148.437L222.562 148.718L223.05 149.003L223.536 149.294L224.019 149.591L224.5 149.892L224.978 150.198L225.454 150.509L225.927 150.826L226.397 151.147L226.864 151.474L227.328 151.805L227.79 152.141L228.248 152.483L228.703 152.829L229.156 153.18L229.605 153.536L230.051 153.897L230.493 154.262L230.933 154.633L231.368 155.008L231.801 155.387L232.23 155.772L232.655 156.161L233.077 156.555L233.495 156.953L233.91 157.356L234.32 157.764L234.727 158.176L235.13 158.593L235.529 159.014L235.924 159.439L236.315 159.869L236.702 160.303L237.085 160.741L237.464 161.184L237.838 161.631L238.208 162.082L238.574 162.537L238.935 162.997L239.292 163.46L239.645 163.928L239.993 164.4L240.336 164.875L240.675 165.355L241.009 165.838L241.338 166.325L241.663 166.816L241.982 167.311L242.297 167.809L242.607 168.311L242.912 168.817L243.212 169.326L243.507 169.839L243.797 170.356L244.082 170.875L244.361 171.399L244.636 171.925L244.905 172.455L245.168 172.988L245.427 173.524L245.68 174.064L245.928 174.606L246.17 175.152L246.406 175.7L246.638 176.252L246.863 176.806L247.083 177.364L247.298 177.924L247.506 178.487L247.709 179.052L247.906 179.62L248.098 180.191L248.283 180.765L248.463 181.34L248.637 181.918L248.805 182.499L248.966 183.082L249.122 183.667L249.272 184.254L249.416 184.844L249.554 185.435L249.686 186.029L249.811 186.624L249.931 187.222L250.044 187.821L250.151 188.422L250.251 189.025L250.346 189.629L250.434 190.236L250.516 190.843L250.591 191.452L250.66 192.063L250.723 192.675L250.78 193.288L250.829 193.902L250.873 194.518L250.91 195.135L250.94 195.753L250.964 196.372L250.982 196.991L250.993 197.612L250.997 198.233L250.995 198.855L250.986 199.478L250.971 200.102L250.949 200.726L250.92 201.35L250.885 201.975L250.843 202.6L250.794 203.226L250.739 203.852L250.677 204.478L250.608 205.104L250.533 205.73L250.451 206.356L250.362 206.982L250.267 207.607L250.165 208.233L250.056 208.858L249.94 209.483L249.817 210.107L249.688 210.731L249.552 211.354L249.41 211.977L249.26 212.599L249.104 213.22L248.941 213.84L248.772 214.46L248.595 215.078L248.412 215.696L248.223 216.312L248.026 216.927L247.823 217.541L247.613 218.153L247.396 218.765L247.173 219.374L246.943 219.983L246.706 220.589L246.463 221.194L246.213 221.797L245.956 222.399L245.693 222.999L245.423 223.596L245.146 224.192L244.863 224.786L244.573 225.377L244.277 225.967L243.974 226.554L243.665 227.139L243.349 227.721L243.026 228.301L242.698 228.878L242.362 229.453L242.02 230.025L241.672 230.595L241.318 231.162L240.957 231.725L240.59 232.286L240.216 232.844L239.836 233.399L239.45 233.951L239.058 234.5L238.659 235.045L238.255 235.587L237.844 236.126L237.427 236.661L237.004 237.193L236.575 237.721L236.139 238.246L235.698 238.767L235.251 239.284L234.798 239.798L234.339 240.307L233.874 240.813L233.404 241.314L232.927 241.812L232.445 242.305L231.957 242.795L231.464 243.28L230.965 243.76L230.46 244.237L229.95 244.709L229.434 245.176L228.913 245.639L228.386 246.097L227.854 246.551L227.317 247L226.774 247.444L226.226 247.884L225.673 248.318L225.115 248.748L224.551 249.173L223.983 249.592L223.409 250.007L222.831 250.416L222.248 250.82L221.66 251.219L221.067 251.613L220.469 252.001L219.867 252.384L219.259 252.761L218.648 253.133L218.032 253.499L217.411 253.86L216.786 254.215L216.156 254.564L215.523 254.908L214.885 255.246L214.242 255.578L213.596 255.904L212.946 256.224L212.291 256.538L211.633 256.846L210.97 257.147L210.304 257.443L209.634 257.733L208.961 258.016L208.283 258.293L207.602 258.564L206.918 258.829L206.23 259.087L205.539 259.338L204.844 259.584L204.146 259.822L203.445 260.054L202.741 260.28L202.034 260.499L201.323 260.711L200.61 260.917L199.894 261.116L199.175 261.308L198.454 261.493L197.729 261.672L197.002 261.844L196.273 262.009L195.541 262.167L194.807 262.318L194.071 262.462L193.332 262.599L192.591 262.728L191.848 262.851L191.103 262.967L190.356 263.076L189.608 263.177L188.857 263.272L188.105 263.359L187.351 263.439L186.595 263.512L185.838 263.577L185.08 263.636L184.32 263.687L183.559 263.73L182.797 263.766L182.034 263.795L181.27 263.817L180.505 263.831L179.738 263.838L178.972 263.837L178.204 263.829L177.436 263.814L176.667 263.791L175.898 263.76L175.128 263.722L174.358 263.677L173.588 263.624L172.817 263.563L172.047 263.495L171.276 263.42L170.506 263.336L169.736 263.246L168.966 263.148L168.196 263.042L167.427 262.929L166.658 262.808L165.89 262.679L165.122 262.543L164.355 262.4L163.589 262.249L162.824 262.09L162.059 261.924L161.296 261.75L160.534 261.569L159.773 261.38L159.014 261.183L158.256 260.979L157.499 260.768L156.744 260.549L155.99 260.322L155.238 260.088L154.488 259.846L153.74 259.597L152.993 259.341L152.249 259.077L151.507 258.805L150.767 258.526L150.029 258.24L149.294 257.946L148.561 257.645L147.83 257.337L147.102 257.021L146.377 256.698L145.655 256.367L144.935 256.029L144.218 255.684L143.505 255.332L142.794 254.972L142.087 254.606L141.382 254.232L140.681 253.851L139.984 253.462L139.29 253.067L138.599 252.665L137.912 252.255L137.229 251.839L136.549 251.415L135.874 250.985L135.202 250.547L134.534 250.103L133.871 249.652L133.211 249.194L132.556 248.729L131.905 248.258L131.259 247.78L130.617 247.295L129.979 246.803L129.346 246.305L128.718 245.801L128.095 245.289L127.476 244.772L126.862 244.247L126.253 243.717L125.65 243.18L125.051 242.637L124.458 242.087L123.87 241.531L123.287 240.97L122.71 240.402L122.138 239.827L121.572 239.247L121.011 238.661L120.456 238.069L119.907 237.471L119.363 236.867L118.826 236.258L118.294 235.642L117.768 235.021L117.249 234.395L116.735 233.763L116.228 233.125L115.727 232.482L115.233 231.833L114.745 231.179L114.263 230.52L113.788 229.856L113.319 229.186L112.857 228.511L112.402 227.831L111.954 227.147L111.512 226.457L111.077 225.763L110.649 225.063L110.229 224.359L109.815 223.65L109.408 222.937L109.009 222.219L108.616 221.497L108.231 220.77L107.854 220.039L107.483 219.304L107.12 218.564L106.765 217.82L106.417 217.073L106.077 216.321L105.744 215.565L105.419 214.805L105.102 214.042L104.792 213.275L104.49 212.504L104.196 211.73L103.91 210.952L103.632 210.171L103.362 209.387L103.1 208.599L102.846 207.808L102.6 207.014L102.363 206.217L102.133 205.417L101.912 204.614L101.699 203.808L101.494 202.999L101.298 202.188L101.109 201.374L100.93 200.558L100.759 199.739L100.596 198.918L100.442 198.095L100.296 197.27L100.159 196.442L100.03 195.613L99.9103 194.781L99.799 193.948L99.6964 193.113L99.6025 192.276L99.5173 191.438L99.4408 190.598L99.3731 189.757L99.3142 188.915L99.2641 188.071L99.2229 187.226L99.1905 186.38L99.167 185.532L99.1523 184.684L99.1466 183.836L99.1498 182.986L99.1619 182.136L99.183 181.285L99.213 180.434L99.252 179.582L99.3 178.73L99.357 177.878L99.423 177.025L99.498 176.173L99.5821 175.321L99.6751 174.468L99.7772 173.616L99.8884 172.764L100.009 171.913L100.138 171.062L100.276 170.212L100.423 169.362L100.58 168.513L100.745 167.665L100.92 166.818L101.103 165.972L101.296 165.127L101.497 164.283L101.708 163.441L101.928 162.599L102.156 161.76L102.394 160.921L102.641 160.085L102.896 159.25L103.161 158.417L103.435 157.586L103.717 156.757L104.009 155.93L104.309 155.105L104.618 154.282L104.937 153.462L105.264 152.644L105.6 151.829L105.944 151.016L106.298 150.206L106.66 149.399L107.031 148.594L107.411 147.793L107.8 146.994L108.197 146.199L108.603 145.407L109.018 144.618L109.441 143.833L109.873 143.051L110.313 142.273L110.762 141.498L111.219 140.727L111.685 139.96L112.159 139.197L112.642 138.438L113.133 137.683L113.632 136.932L114.14 136.185L114.656 135.442L115.18 134.704L115.712 133.971L116.252 133.242L116.8 132.518L117.357 131.798L117.921 131.084L118.493 130.374L119.073 129.669L119.662 128.969L120.257 128.275L120.861 127.586L121.472 126.901L122.091 126.223L122.718 125.55L123.352 124.882L123.993 124.22L124.642 123.564L125.299 122.913L125.963 122.268L126.634 121.63L127.312 120.997L127.997 120.37L128.69 119.749L129.389 119.135L130.096 118.527L130.809 117.925L131.53 117.33L132.257 116.741L132.991 116.159L133.731 115.584L134.478 115.015L135.232 114.453L135.992 113.898L136.758 113.349L137.531 112.808L138.31 112.274L139.096 111.747L139.887 111.227L140.685 110.715L141.488 110.209L142.297 109.711L143.113 109.221L143.933 108.738L144.76 108.263L145.592 107.795L146.43 107.335L147.273 106.883L148.122 106.438L148.976 106.001L149.835 105.573L150.699 105.152L151.568 104.739L152.443 104.335L153.322 103.938L154.206 103.55L155.094 103.17L155.988 102.798L156.886 102.435L157.788 102.08L158.695 101.734L159.606 101.396L160.521 101.066L161.44 100.745L162.364 100.433L163.291 100.13L164.222 99.8349L165.157 99.5489L166.096 99.2718L167.038 99.0035L167.984 98.7441L168.933 98.4936L169.886 98.2521L170.842 98.0197L171.801 97.7962L172.762 97.5819L173.727 97.3768L174.695 97.1808L175.666 96.994L176.639 96.8164L177.614 96.6481L178.593 96.4891L179.573 96.3394L180.556 96.1991L181.541 96.0682L182.528 95.9467L183.517 95.8346L184.508 95.732L185.501 95.6389L186.495 95.5553L187.491 95.4812L188.489 95.4167L189.488 95.3618L190.488 95.3165L191.489 95.2809L192.492 95.2548L193.495 95.2384L194.499 95.2317L195.504 95.2347L196.51 95.2474L197.517 95.2698L198.523 95.3019L199.531 95.3438L200.538 95.3954L201.546 95.4568L202.554 95.528L203.561 95.6089L204.569 95.6996L205.576 95.8001L206.583 95.9104L207.59 96.0305L208.596 96.1604L209.601 96.3001L210.606 96.4496L211.609 96.6089L212.612 96.778L213.614 96.9569L214.614 97.1456L215.613 97.344L216.611 97.5523L217.607 97.7703L218.602 97.9981L219.595 98.2357L220.586 98.483L221.576 98.74L222.563 99.0068L223.548 99.2832L224.531 99.5694L225.512 99.8653L226.49 100.171L227.466 100.486L228.439 100.811L229.409 101.145L230.377 101.489L231.341 101.843L232.303 102.206L233.261 102.579L234.216 102.961L235.168 103.353L236.116 103.754L237.061 104.164L238.002 104.584L238.94 105.013L239.873 105.452L240.803 105.9L241.728 106.357L242.649 106.824L243.566 107.299L244.479 107.784L245.387 108.278L246.291 108.781L247.19 109.293L248.084 109.815L248.973 110.345L249.858 110.884L250.737 111.432L251.611 111.989L252.48 112.554L253.344 113.129L254.202 113.712L255.054 114.304L255.901 114.904L256.743 115.513L257.578 116.131L258.407 116.757L259.231 117.391L260.048 118.034L260.86 118.685L261.664 119.344L262.463 120.012L263.255 120.688L264.041 121.372L264.819 122.064L265.592 122.763L266.357 123.471L267.115 124.187L267.867 124.91L268.611 125.641L269.348 126.38L270.078 127.127L270.801 127.881L271.516 128.642L272.223 129.411L272.923 130.187L273.616 130.971L274.3 131.761L274.977 132.559L275.646 133.364L276.306 134.176L276.959 134.994L277.604 135.82L278.24 136.652L278.868 137.491L279.488 138.337L280.099 139.189L280.702 140.047L281.296 140.912L281.881 141.784L282.458 142.661L283.025 143.545L283.584 144.435L284.134 145.33L284.675 146.232L285.207 147.139L285.73 148.052L286.243 148.971L286.747 149.895L287.242 150.825L287.727 151.76L288.203 152.7L288.669 153.646L289.126 154.597L289.573 155.552L290.01 156.513L290.438 157.479L290.855 158.449L291.263 159.424L291.661 160.403L292.048 161.387L292.426 162.376L292.794 163.368L293.151 164.365L293.498 165.366L293.835 166.371L294.162 167.379L294.478 168.392L294.784 169.408L295.079 170.428L295.364 171.451L295.638 172.478L295.902 173.508L296.155 174.542L296.397 175.578L296.629 176.617L296.85 177.66L297.06 178.705L297.259 179.752L297.448 180.803L297.625 181.856L297.792 182.911L297.948 183.968L298.092 185.028M298.349 187.153L298.46 188.219L298.561 189.286L298.65 190.355L298.728 191.426L298.795 192.498L298.851 193.571L298.895 194.645L298.929 195.721L298.951 196.798L298.962 197.875L298.961 198.953L298.95 200.032L298.926 201.112L298.892 202.192L298.846 203.272L298.789 204.352L298.721 205.433L298.641 206.514L298.55 207.594L298.447 208.675L298.333 209.755L298.208 210.834L298.071 211.914L297.923 212.992L297.763 214.07L297.592 215.147L297.41 216.222L297.216 217.297L297.011 218.371L296.794 219.443L296.566 220.514L296.327 221.583L296.077 222.651L295.815 223.717L295.541 224.781L295.257 225.843L294.961 226.903L294.654 227.961L294.335 229.016L294.005 230.069L293.664 231.12L293.312 232.168L292.949 233.213L292.574 234.255L292.188 235.294L291.791 236.331L291.383 237.364L290.964 238.393L290.534 239.42L290.093 240.443L289.641 241.462L289.178 242.477L288.704 243.489L288.219 244.497L287.723 245.5L287.217 246.5L286.699 247.495L286.171 248.486L285.632 249.472L285.083 250.454L284.523 251.431L283.952 252.403L283.371 253.37L282.779 254.332L282.177 255.29L281.565 256.242L280.942 257.188L280.309 258.129L279.665 259.065L279.012 259.995L278.348 260.919L277.674 261.838L276.99 262.75L276.296 263.657L275.592 264.557L274.879 265.451L274.155 266.339L273.422 267.22L272.679 268.095L271.927 268.963L271.165 269.824L270.393 270.679L269.613 271.527L268.822 272.367L268.023 273.201L267.214 274.027L266.396 274.846L265.569 275.658L264.733 276.462L263.888 277.258L263.035 278.047L262.172 278.828L261.301 279.602L260.421 280.367L259.533 281.124L258.636 281.874L257.731 282.615L256.817 283.347L255.896 284.072L254.966 284.788L254.028 285.495L253.082 286.194L252.128 286.884L251.167 287.565L250.198 288.238L249.221 288.901L248.236 289.556L247.245 290.201L246.245 290.837L245.239 291.464L244.225 292.082L243.205 292.69L242.177 293.288L241.143 293.878L240.102 294.457L239.054 295.027L237.999 295.587L236.938 296.137L235.871 296.678L234.797 297.208L233.717 297.728L232.631 298.239L231.539 298.739L230.442 299.229L229.338 299.708L228.229 300.177L227.114 300.636L225.994 301.085L224.868 301.522L223.737 301.949L222.601 302.366L221.461 302.772L220.315 303.167L219.164 303.551L218.009 303.925L216.849 304.287L215.684 304.639L214.515 304.979L213.342 305.309L212.165 305.627L210.984 305.934L209.799 306.23L208.61 306.515L207.418 306.788L206.222 307.051L205.022 307.301L203.82 307.541L202.614 307.769L201.405 307.985L200.193 308.19L198.978 308.383L197.76 308.565L196.54 308.735L195.317 308.894L194.092 309.04L192.865 309.175L191.636 309.299L190.404 309.41L189.171 309.51L187.936 309.598L186.7 309.674L185.462 309.738L184.222 309.79L182.982 309.831L181.74 309.859L180.497 309.876L179.253 309.88L178.009 309.873L176.764 309.854L175.518 309.822L174.272 309.779L173.026 309.723L171.78 309.656L170.533 309.576L169.287 309.485L168.041 309.381L166.796 309.266L165.551 309.138L164.306 308.998L163.063 308.846L161.82 308.682L160.578 308.506L159.338 308.318L158.099 308.118L156.861 307.906L155.624 307.682L154.39 307.446L153.157 307.197L151.926 306.937L150.697 306.665L149.47 306.381L148.246 306.084L147.024 305.776L145.804 305.456L144.587 305.124L143.373 304.78L142.162 304.424L140.954 304.057L139.749 303.677L138.548 303.286L137.35 302.883L136.155 302.468L134.964 302.041L133.777 301.603L132.594 301.153L131.415 300.691L130.24 300.218L129.07 299.733L127.903 299.237L126.742 298.729L125.585 298.21L124.433 297.679L123.286 297.137L122.144 296.584L121.007 296.019L119.875 295.443L118.749 294.856L117.628 294.257L116.513 293.648L115.404 293.027L114.3 292.395L113.203 291.753L112.112 291.099L111.027 290.435L109.948 289.76L108.876 289.074L107.81 288.377L106.752 287.67L105.7 286.952L104.654 286.224L103.616 285.485L102.586 284.736L101.562 283.976L100.546 283.206L99.5373 282.426L98.5363 281.636L97.5431 280.836L96.5576 280.026L95.5802 279.206L94.6107 278.376L93.6495 277.536L92.6965 276.687L91.7519 275.827L90.8158 274.959L89.8883 274.081L88.9695 273.193L88.0595 272.296L87.1584 271.39L86.2662 270.475L85.3832 269.551L84.5094 268.617L83.6449 267.675L82.7898 266.724L81.9443 265.764L81.1083 264.796L80.282 263.819L79.4654 262.833L78.6588 261.839L77.8621 260.837L77.0756 259.827L76.2991 258.808L75.533 257.781L74.7771 256.747L74.0317 255.705L73.2968 254.655L72.5725 253.597L71.8589 252.532L71.1561 251.459L70.4641 250.379L69.7831 249.292L69.1131 248.198L68.4542 247.097L67.8065 245.988L67.17 244.873L66.5449 243.751L65.9312 242.623L65.3289 241.488L64.7383 240.347L64.1593 239.199L63.592 238.046L63.0364 236.886L62.4927 235.72L61.961 234.548L61.4412 233.371L60.9335 232.188L60.4379 230.999L59.9544 229.806L59.4833 228.606L59.0244 227.402L58.5779 226.193L58.1438 224.978L57.7222 223.759L57.3131 222.536L56.9167 221.307L56.5329 220.074L56.1618 218.837L55.8034 217.596L55.4579 216.35L55.1252 215.101L54.8055 213.848L54.4986 212.591L54.2048 211.33L53.924 210.066L53.6564 208.798L53.4018 207.528L53.1604 206.254L52.9322 204.977L52.7173 203.697L52.5156 202.415L52.3273 201.13L52.1523 199.843L51.9907 198.553L51.8425 197.261L51.7078 195.967L51.5865 194.671L51.4788 193.373L51.3846 192.073L51.3039 190.772L51.2368 189.469L51.1833 188.165L51.1434 186.86L51.1172 185.554L51.1046 184.247L51.1057 182.939L51.1205 181.631L51.149 180.321L51.1912 179.012L51.2471 177.702L51.3168 176.392L51.4002 175.083L51.4974 173.773L51.6083 172.463L51.733 171.154L51.8715 169.846L52.0237 168.538L52.1897 167.231L52.3694 165.925L52.5629 164.62L52.7701 163.316L52.9912 162.014L53.2259 160.713L53.4744 159.413L53.7366 158.115L54.0125 156.82L54.3022 155.526L54.6055 154.234L54.9225 152.945L55.2531 151.658L55.5974 150.373L55.9553 149.091L56.3268 147.812L56.7118 146.536L57.1104 145.263L57.5225 143.994L57.9482 142.727L58.3873 141.464L58.8398 140.205L59.3057 138.949L59.785 137.697L60.2777 136.449L60.7836 135.205L61.3028 133.966L61.8353 132.731L62.3809 131.5L62.9397 130.274L63.5116 129.053L64.0966 127.837L64.6946 126.625L65.3055 125.419L65.9294 124.218L66.5662 123.023L67.2158 121.833L67.8781 120.649L68.5532 119.47L69.241 118.298L69.9413 117.131L70.6542 115.971L71.3796 114.817L72.1175 113.669L72.8677 112.528L73.6302 111.394L74.405 110.266L75.192 109.145L75.991 108.031L76.8022 106.925L77.6253 105.825L78.4603 104.733L79.3071 103.649L80.1657 102.572L81.036 101.503L81.9179 100.442L82.8114 99.3883L83.7163 98.3431L84.6326 97.306L85.5602 96.2773L86.499 95.257L87.4489 94.2452L88.4099 93.2421L89.3819 92.2477L90.3648 91.2622L91.3584 90.2857L92.3627 89.3182L93.3777 88.36L94.4031 87.411L95.439 86.4715L96.4853 85.5414L97.5418 84.621L98.6084 83.7103L99.685 82.8094L100.772 81.9185L101.868 81.0376L102.974 80.1667L104.09 79.3062L105.216 78.4559L106.35 77.616L107.495 76.7867L108.648 75.968L109.811 75.16L110.982 74.3627L112.163 73.5764L113.352 72.801L114.55 72.0367L115.756 71.2836L116.971 70.5417L118.195 69.8111L119.426 69.092L120.666 68.3844L121.913 67.6883L123.169 67.004L124.432 66.3313L125.703 65.6706L126.982 65.0217L128.268 64.3848L129.561 63.76L130.861 63.1473L132.168 62.5468L133.483 61.9587L134.804 61.3829L136.131 60.8195L137.466 60.2686L138.806 59.7304L140.153 59.2047L141.506 58.6918L142.865 58.1916L144.23 57.7043L145.601 57.2299L146.977 56.7684L148.359 56.32L149.746 55.8846L151.138 55.4624L152.536 55.0534L153.938 54.6576L155.345 54.2751L156.757 53.906L158.173 53.5503L159.594 53.2081L161.019 52.8793L162.448 52.5641L163.881 52.2626L165.318 51.9746L166.758 51.7004L168.203 51.4399L169.65 51.1931L171.101 50.9602L172.555 50.7411L174.012 50.5359L175.471 50.3446L176.934 50.1672L178.399 50.0039L179.866 49.8546L181.336 49.7193L182.807 49.5981L184.281 49.491L185.756 49.398L187.234 49.3192L188.712 49.2545L190.192 49.204L191.673 49.1678L193.156 49.1458L194.639 49.138L196.123 49.1445L197.607 49.1653L199.093 49.2004L200.578 49.2497L202.063 49.3134L203.549 49.3914L205.035 49.4838L206.52 49.5904L208.005 49.7114L209.489 49.8468L210.972 49.9965L212.455 50.1605L213.936 50.3388L215.417 50.5315L216.896 50.7386L218.373 50.9599L219.849 51.1956L221.323 51.4456L222.796 51.7098L224.266 51.9884L225.734 52.2812L227.199 52.5883L228.662 52.9096L230.122 53.2451L231.58 53.5949L233.034 53.9588L234.485 54.3369L235.933 54.7291L237.378 55.1354L238.819 55.5558L240.256 55.9902L241.69 56.4387L243.119 56.9012L244.544 57.3776L245.965 57.868L247.381 58.3722L248.793 58.8903L250.2 59.4223L251.602 59.968L252.999 60.5274L254.391 61.1005L255.777 61.6873L257.158 62.2877L258.533 62.9016L259.902 63.529L261.266 64.1699L262.623 64.8242L263.974 65.4919L265.319 66.1728L266.657 66.867L267.989 67.5744L269.314 68.2949L270.632 69.0285L271.943 69.7751L273.246 70.5346L274.542 71.307L275.831 72.0922L277.112 72.8902L278.386 73.7009L279.651 74.5241L280.908 75.36L282.158 76.2082L283.398 77.0689L284.631 77.9419L285.855 78.8272L287.07 79.7246L288.276 80.6341L289.474 81.5557L290.662 82.4891L291.841 83.4344L293.011 84.3915L294.171 85.3602L295.321 86.3406L296.462 87.3324L297.593 88.3357L298.714 89.3502L299.825 90.3761L300.926 91.413L302.016 92.461L303.096 93.52L304.165 94.5898L305.224 95.6704L306.271 96.7616L307.308 97.8634L308.334 98.9757L309.348 100.098L310.351 101.231L311.343 102.374L312.323 103.527L313.292 104.69L314.249 105.863L315.194 107.046L316.127 108.238L317.048 109.44L317.957 110.651L318.854 111.871L319.738 113.1L320.61 114.339L321.469 115.587L322.316 116.843L323.15 118.108L323.971 119.381L324.779 120.663L325.574 121.954L326.355 123.252L327.124 124.559L327.879 125.874L328.621 127.196L329.349 128.526L330.064 129.864L330.765 131.209L331.452 132.562L332.126 133.922L332.785 135.289L333.431 136.662L334.062 138.043L334.679 139.43L335.283 140.824L335.871 142.224L336.446 143.631L337.005 145.043L337.551 146.462L338.082 147.886L338.598 149.317L339.099 150.752L339.586 152.194L340.057 153.64L340.514 155.092L340.956 156.549L341.383 158.01L341.794 159.477L342.191 160.947L342.572 162.423L342.938 163.903L343.289 165.386L343.624 166.874L343.944 168.366L344.248 169.861L344.537 171.36L344.811 172.863L345.069 174.369L345.311 175.878L345.537 177.389L345.748 178.904L345.943 180.421L346.122 181.941L346.286 183.464L346.433 184.988L346.565 186.515L346.681 188.043L346.781 189.573L346.865 191.105L346.933 192.638L346.985 194.173L347.021 195.709L347.04 197.246L347.044 198.783L347.032 200.322L347.004 201.86L346.959 203.4L346.899 204.939L346.822 206.479L346.729 208.018L346.62 209.557L346.495 211.096L346.354 212.635L346.196 214.172L346.023 215.709L345.833 217.245L345.627 218.779L345.405 220.312L345.167 221.844L344.913 223.374L344.643 224.903L344.356 226.429L344.054 227.953L343.735 229.475L343.401 230.995L343.05 232.512L342.684 234.026L342.301 235.537L341.902 237.046L341.488 238.551L341.057 240.052L340.611 241.551L340.149 243.045L339.671 244.536L339.177 246.023L338.668 247.506L338.142 248.984L337.602 250.458L337.045 251.928L336.473 253.392L335.885 254.852L335.282 256.307L334.663 257.756L334.029 259.201L333.38 260.639L332.715 262.072L332.035 263.5L331.34 264.921L330.629 266.336L329.904 267.745L329.163 269.148L328.408 270.544L327.637 271.933L326.852 273.316L326.052 274.691L325.237 276.06L324.408 277.421L323.564 278.775L322.705 280.121L321.832 281.46L320.945 282.791L320.044 284.113L319.128 285.428L318.198 286.734L317.254 288.032L316.296 289.322L315.324 290.602L314.339 291.874L313.34 293.137L312.327 294.391L311.3 295.636L310.261 296.871L309.207 298.097L308.141 299.313L307.061 300.52L305.969 301.716L304.863 302.903L303.745 304.079L302.613 305.245L301.47 306.401L300.313 307.546L299.144 308.681L297.963 309.805L296.77 310.918L295.564 312.02L294.346 313.11L293.117 314.19L291.876 315.258L290.623 316.315L289.358 317.36L288.082 318.393L286.795 319.414L285.496 320.424L284.187 321.421L282.866 322.406L281.535 323.379L280.193 324.34L278.84 325.288L277.477 326.223L276.104 327.146L274.72 328.056L273.326 328.953L271.923 329.837L270.509 330.707L269.086 331.565L267.653 332.409L266.211 333.24L264.76 334.057L263.299 334.86L261.83 335.65L260.352 336.426L258.864 337.188L257.369 337.937L255.865 338.671L254.352 339.391L252.832 340.096L251.304 340.788L249.767 341.465L248.223 342.127L246.672 342.775L245.113 343.408L243.547 344.027L241.973 344.63L240.393 345.219L238.806 345.793L237.212 346.352L235.612 346.895L234.006 347.424L232.393 347.937L230.775 348.435L229.15 348.918L227.52 349.385L225.884 349.837L224.243 350.273L222.597 350.694L220.945 351.098L219.289 351.488L217.628 351.861L215.963 352.219L214.293 352.561L212.619 352.886L210.94 353.196L209.258 353.49L207.572 353.768L205.883 354.03L204.19 354.275L202.494 354.505L200.795 354.718L199.092 354.915L197.388 355.095L195.68 355.26L193.97 355.408L192.258 355.539L190.544 355.655L188.828 355.753L187.111 355.836L185.392 355.902L183.671 355.951L181.949 355.984L180.226 356L178.503 356L176.778 355.983L175.054 355.949L173.329 355.899L171.603 355.833L169.878 355.75L168.153 355.65L166.428 355.533L164.704 355.4L162.98 355.25L161.258 355.084L159.536 354.901L157.816 354.702L156.097 354.485L154.38 354.253L152.664 354.003L150.951 353.737L149.239 353.455L147.53 353.155L145.823 352.84L144.119 352.508L142.418 352.159L140.72 351.794L139.025 351.412L137.333 351.014L135.645 350.599L133.96 350.168L132.279 349.721L130.602 349.257L128.93 348.778L127.262 348.281L125.598 347.769L123.939 347.24L122.285 346.696L120.636 346.135L118.992 345.558L117.354 344.965L115.721 344.356L114.094 343.731L112.472 343.09L110.857 342.434L109.248 341.761L107.646 341.073L106.05 340.37L104.461 339.65L102.879 338.915L101.303 338.165L99.7353 337.399L98.1748 336.618L96.6218 335.821L95.0765 335.01L93.5391 334.183L92.0098 333.341L90.4887 332.484L88.9759 331.612L87.4717 330.725L85.9762 329.823L84.4895 328.907L83.0119 327.976L81.5434 327.03L80.0842 326.07L78.6345 325.096L77.1944 324.107L75.7641 323.104L74.3438 322.087L72.9335 321.056L71.5335 320.011L70.1439 318.952L68.7648 317.879L67.3963 316.793L66.0388 315.693L64.6922 314.58L63.3567 313.453L62.0325 312.313L60.7197 311.16L59.4184 309.993L58.1289 308.814L56.8512 307.622L55.5854 306.417L54.3318 305.2L53.0904 303.97L51.8614 302.728L50.645 301.473L49.4411 300.207L48.2501 298.928L47.072 297.637L45.9069 296.335L44.755 295.02L43.6164 293.695L42.4912 292.357L41.3795 291.009L40.2816 289.649L39.1974 288.278L38.1272 286.896L37.071 285.504L36.0289 284.101L35.0011 282.687L33.9878 281.263L32.9889 279.828L32.0046 278.384L31.0351 276.929L30.0804 275.465L29.1406 273.99L28.2159 272.507L27.3064 271.013L26.4121 269.511L25.5332 267.999L24.6698 266.479L23.8219 264.949L22.9897 263.411L22.1733 261.864L21.3727 260.309L20.5881 258.745L19.8195 257.173L19.0671 255.594L18.3309 254.006L17.611 252.411L16.9075 250.809L16.2205 249.199L15.55 247.581L14.8963 245.957L14.2592 244.326L13.639 242.688L13.0356 241.044L12.4492 239.393L11.8799 237.736L11.3276 236.073L10.7926 234.404L10.2747 232.729L9.77422 231.048L9.29108 229.362L8.82538 227.671L8.37718 225.975L7.94654 224.274L7.53352 222.568L7.13817 220.857L6.76056 219.142L6.40073 217.423L6.05873 215.7L5.73461 213.972L5.42843 212.241L5.14022 210.507L4.87004 208.769L4.61791 207.028L4.38389 205.283L4.16802 203.536L3.97032 201.786L3.79084 200.034L3.6296 198.279L3.48664 196.522L3.36199 194.763L3.25568 193.002L3.16773 191.24L3.09816 189.476L3.04701 187.71L3.01428 185.944L3 184.176L3.00419 182.408L3.02685 180.639L3.06801 178.87L3.12767 177.101L3.20584 175.331L3.30253 173.562L3.41775 171.792L3.5515 170.024L3.70378 168.256L3.87459 166.488L4.06394 164.722L4.2718 162.957L4.49819 161.193L4.74309 159.431L5.00649 157.671L5.28839 155.912L5.58876 154.156L5.9076 152.401L6.24489 150.649L6.6006 148.9L6.97472 147.154L7.36723 145.41L7.77809 143.67L8.20729 141.933L8.6548 140.199L9.12058 138.47L9.60461 136.744L10.1068 135.022L10.6273 133.304L11.1658 131.591L11.7225 129.882L12.2972 128.178L12.8899 126.478L13.5006 124.784L14.1292 123.096L14.7756 121.412L15.44 119.734L16.122 118.062L16.8218 116.396L17.5393 114.736L18.2743 113.083L19.0269 111.436L19.797 109.795L20.5845 108.161L21.3893 106.535L22.2115 104.915L23.0508 103.303L23.9073 101.698L24.7809 100.101L25.6715 98.5118L26.5789 96.9305L27.5033 95.3574L28.4444 93.7926L29.4022 92.2363L30.3766 90.6886L31.3675 89.1497L32.3749 87.6199L33.3986 86.0991L34.4385 84.5877L35.4946 83.0857L36.5668 81.5933L37.6549 80.1107L38.759 78.638L39.8788 77.1754L41.0143 75.7231L42.1654 74.2812L43.3319 72.8498L44.5138 71.4291L45.711 70.0192L46.9233 68.6204L48.1507 67.2327L49.393 65.8563L50.6501 64.4914L51.922 63.1381L53.2084 61.7965L54.5093 60.4668L55.8246 59.1491L57.154 57.8436L58.4976 56.5504L59.8552 55.2697L61.2266 54.0016L62.6118 52.7462L64.0106 51.5037L65.4228 50.2741L66.8484 49.0578L68.2872 47.8546L69.7391 46.6649L71.2039 45.4888L72.6815 44.3262L74.1718 43.1775L75.6746 42.0427L77.1898 40.922L78.7173 39.8154L80.2568 38.723L81.8083 37.6452L83.3715 36.5818L84.9465 35.5331L86.5329 34.4991L88.1308 33.4801L89.7398 32.476L91.3598 31.487L92.9908 30.5133L94.6325 29.5549L96.2848 28.6119L97.9475 27.6845L99.6205 26.7727L101.304 25.8767L102.997 24.9966L104.699 24.1324L106.412 23.2843L108.134 22.4523L109.865 21.6366L111.605 20.8373L113.355 20.0544L115.113 19.288L116.879 18.5383L118.654 17.8052L120.438 17.089L122.229 16.3897L124.029 15.7073L125.836 15.042L127.651 14.3938L129.473 13.7628L131.302 13.1492L133.139 12.5529L134.982 11.974L136.832 11.4126L138.688 10.8689L140.551 10.3427L142.42 9.83432L144.295 9.34369L146.175 8.87091L148.062 8.41603L149.953 7.97912L151.85 7.56024L153.752 7.15944L155.659 6.77677L157.57 6.4123L159.486 6.06606L161.406 5.73811L163.33 5.4285L165.258 5.13727L167.19 4.86446L169.125 4.61013L171.064 4.3743L173.006 4.15702L174.95 3.95831L176.898 3.77823L178.848 3.61679L180.8 3.47404L182.755 3.34999L184.711 3.24468L186.669 3.15814L188.629 3.09037L190.59 3.04142L192.552 3.01129L194.516 3L196.48 3.00757L198.444 3.03402L200.41 3.07935L202.375 3.14358L204.34 3.22671L206.305 3.32875L208.27 3.4497L210.234 3.58958L212.197 3.74837L214.159 3.92607L216.12 4.12269L218.08 4.33822L220.038 4.57265L221.994 4.82597L223.949 5.09818L225.901 5.38925L227.851 5.69917L229.798 6.02793L231.742 6.37552L233.684 6.7419L235.622 7.12705L237.557 7.53096L239.488 7.95359L241.416 8.39492L243.339 8.85492L245.259 9.33356L247.174 9.83079L249.084 10.3466L250.99 10.8809L252.891 11.4337L254.787 12.005L256.677 12.5947L258.562 13.2027L260.441 13.8291L262.314 14.4737L264.181 15.1365L266.042 15.8175L267.896 16.5165L269.744 17.2337L271.584 17.9688L273.418 18.7219L275.245 19.4928L277.064 20.2815L278.875 21.088L280.678 21.9121L282.474 22.7538L284.261 23.6131L286.04 24.4898L287.81 25.3839L289.572 26.2954L291.325 27.224L293.068 28.1698L294.803 29.1326L296.527 30.1125L298.242 31.1092L299.948 32.1227L301.643 33.153L303.328 34.1999L305.003 35.2633L306.667 36.3432L308.32 37.4394L309.963 38.5518L311.594 39.6804L313.214 40.8251L314.823 41.9857L316.42 43.1621L318.005 44.3543L319.579 45.562L321.14 46.7853L322.689 48.0241L324.226 49.278L325.75 50.5472L327.261 51.8314L328.76 53.1306L330.245 54.4446L331.717 55.7733L333.176 57.1166L334.621 58.4743L336.052 59.8464L337.47 61.2326L338.873 62.633L340.262 64.0472L341.637 65.4753L342.998 66.9171L344.344 68.3724L345.675 69.8411L346.991 71.3231L348.293 72.8182L349.579 74.3263L350.849 75.8473L352.105 77.3809L353.344 78.9271L354.568 80.4858L355.776 82.0566L356.968 83.6397L358.144 85.2346L359.303 86.8414L360.447 88.4599L361.573 90.0899L362.683 91.7312L363.776 93.3837L364.853 95.0472L365.912 96.7217L366.954 98.4068L367.979 100.103L368.986 101.809L369.976 103.525L370.948 105.251L371.903 106.988L372.84 108.734L373.759 110.489L374.659 112.254L375.542 114.029L376.406 115.812L377.252 117.604L378.08 119.405L378.889 121.214L379.68 123.032L380.451 124.858L381.204 126.692L381.938 128.534L382.653 130.383L383.349 132.24L384.026 134.104L384.683 135.975L385.321 137.854L385.94 139.738L386.539 141.63L387.119 143.528L387.679 145.432L388.219 147.342L388.739 149.258L389.24 151.179L389.721 153.106L390.182 155.038L390.622 156.975L391.043 158.917L391.443 160.864L391.824 162.815L392.184 164.77L392.523 166.729L392.843 168.693L393.142 170.66L393.42 172.63L393.678 174.604L393.916 176.581M394.329 180.544L394.505 182.529L394.66 184.516L394.794 186.506L394.907 188.497L395 190.49" stroke="#FFB84B" stroke-width="5"/>
</svg>
